<svg xmlns="http://www.w3.org/2000/svg" viewBox="0 0 275.52 275.52"><defs><style>.cls-1,.cls-2,.cls-5{fill:#d0eb66;}.cls-1,.cls-2,.cls-4,.cls-5{stroke:#06261e;stroke-width:5px;}.cls-1,.cls-4,.cls-5{stroke-miterlimit:10;}.cls-2,.cls-5{stroke-linecap:round;}.cls-2{stroke-linejoin:round;}.cls-3{fill:#082119;opacity:0.42;}.cls-4{fill:#ff7174;}</style></defs><g id="Layer_2" data-name="Layer 2"><circle class="cls-1" cx="137.87" cy="244.43" r="13.09"/><polyline class="cls-1" points="143.23 234.91 143.23 209.91 132.52 209.91 132.52 234.91"/><circle class="cls-1" cx="137.87" cy="32.57" r="13.09"/><polyline class="cls-1" points="143.23 42.09 143.23 67.08 132.52 67.08 132.52 42.09"/><circle class="cls-1" cx="31.94" cy="138.5" r="13.09" transform="translate(-110.18 136.43) rotate(-76.18)"/><polyline class="cls-1" points="41.47 143.86 66.46 143.86 66.46 133.14 41.47 133.14"/><circle class="cls-1" cx="243.81" cy="138.5" r="13.09" transform="translate(51.07 342.16) rotate(-76.18)"/><polyline class="cls-1" points="234.28 143.86 209.29 143.86 209.29 133.14 234.28 133.14"/><circle class="cls-1" cx="135.64" cy="137.9" r="80.28"/><path class="cls-2" d="M168.42,87.92a135.33,135.33,0,0,0,38-32.79l14.6,14C208,80.59,197.3,93.51,189.9,108.52"/><path class="cls-3" d="M199.32,60.37s-6.61,6.37-6.93,6.78c0,0,2.27,11.38,17,16.49,0,0,7-7.66,7.85-8.22S206.78,58,199.32,60.37Z"/><circle class="cls-2" cx="220.75" cy="53.99" r="21.42"/><circle class="cls-4" cx="146.36" cy="110.53" r="13.69"/><circle class="cls-4" cx="99.94" cy="140.29" r="10.12"/><circle class="cls-4" cx="149.33" cy="168.26" r="8.33"/><path class="cls-3" d="M202.89,89.7s5.36,6.55,10.12,19.64c-7.14-1.19-11.9-2.38-23.22,1.19C189.79,110.53,196.94,92.08,202.89,89.7Z"/><path class="cls-3" d="M210.67,168.93s-2.09,8.19-9.8,19.8c-4.52-5.6-4.52-8-12.86-18.69C192.2,173.23,210.68,169.71,210.67,168.93Z"/><path class="cls-3" d="M83.56,74.35S90,68.86,103,63.82c-1,7.17-2.13,11.95,1.68,23.19C104.66,87,86.07,80.25,83.56,74.35Z"/><path class="cls-5" d="M189.27,171.85A135.66,135.66,0,0,0,219.48,212l-14.94,13.65c-10.56-13.79-22.75-25.33-37.23-33.7"/><path class="cls-3" d="M213.79,203.23s-4.61-5.34-5-5.69c0,0-11.6,1.43-17.67,15.81,0,0,6.61,6.94,7.12,7.87S215.64,210.83,213.79,203.23Z"/><circle class="cls-1" cx="219.68" cy="226.3" r="21.42"/><path class="cls-5" d="M103,87.92A135.42,135.42,0,0,1,65,55.13l-14.61,14C63.4,80.59,74.11,93.51,81.5,108.52"/><path class="cls-3" d="M73.11,61.37s5,4.94,5.35,5.35c0,0-1.93,11.72-16.68,16.83,0,0-6.49-7-7.38-7.62S65.65,59,73.11,61.37Z"/><circle class="cls-1" cx="50.66" cy="53.99" r="21.42"/><path class="cls-5" d="M82.13,171.85A135.63,135.63,0,0,1,51.93,212l14.94,13.65c10.56-13.79,22.75-25.33,37.23-33.7"/><path class="cls-3" d="M57.08,204.12s5.53-6.63,5.92-7c0,0,11.53,1.58,17.6,16,0,0-6.94,7.47-7.44,8.39S55.22,211.72,57.08,204.12Z"/><circle class="cls-1" cx="51.73" cy="226.3" r="21.42"/></g></svg>