<svg xmlns="http://www.w3.org/2000/svg" xmlns:xlink="http://www.w3.org/1999/xlink" viewBox="0 0 275.52 275.52"><defs><style>.cls-1{fill:none;}.cls-2{clip-path:url(#clip-path);}.cls-3,.cls-4{fill:#f7c872;}.cls-3{stroke:#db7e2a;}.cls-3,.cls-4,.cls-5{stroke-linecap:round;stroke-linejoin:round;stroke-width:5px;}.cls-4{stroke:#f9a755;}.cls-5{fill:#73e5f4;stroke:#acf7f9;}.cls-6{fill:#4f3710;opacity:0.15;}.cls-7{fill:azure;}.cls-8{fill:#492b12;opacity:0.14;}</style><clipPath id="clip-path"><polygon class="cls-1" points="30.89 17.34 246.73 17.34 246.73 246.01 58.35 246.01 32.37 157.74 13.46 106 30.89 17.34"/></clipPath></defs><g id="Layer_2" data-name="Layer 2"><g class="cls-2"><path class="cls-3" d="M30.89,173.24s33.28-27.43,38.69-34.86,1.21-31.74,5.56-46.14,9.75-48.6,9.75-54c0,0,5.4-8.1,14.4-6.3s14.13,19.8,12.46,39.6l51.44-7.87L192,57.14s11.7-14.4,18.9-14.4,18,6.3,13.5,18c0,0,15.16-2.1,17.48,7.95,0,0,6.21,9.15-10.13,20.85,0,0,13.32,8.1-2,23.4,0,0,4.82,9-1.63,14.85s-46.95,27.42-46.95,27.42l-98.1,54s-21.6,17.1-30.6,31.5"/><line class="cls-4" x1="231.74" y1="89.54" x2="216.45" y2="98.99"/><path class="cls-5" d="M93,146.24s-18-33.3,5.4-48.6c0,0-8.1-23.4,5.4-31.5,12.77-7.66,20.59,3.47,20.59,3.47s-5.29-13.37,1.91-18.77c6.44-4.83,12.35-.9,12.93,0s-.33-18.9,17.67-20.7c16.21-1.62,22.65,12,22.65,12s3.45-8.36,11.55-6.56c6.69,1.49,8.31,8.88,5.5,20.19l1.24,5.49s19.45-7.56,27.95,8.58c0,0,7.94,17-9.33,29.19,0,0-1.06,26.55-11.86,31.05S124.49,157.94,93,146.24Z"/><path class="cls-6" d="M80.84,210.59c-4.75,1.52-10.6,6.48-17.1,13.5l-14.4-63,18-17.1Z"/><path class="cls-3" d="M148,252.43s-6.41-42.29-6.41-44.09c0,0,9.9-6.3,13.5-9.9s27.9-36.9,32.4-42.3,36-36,36-36,4.5-7.2.9-13.5-8.1-6.3-11.7-5.4-17.09,12.34-17.09,12.34v.26c6.7-11.41,11.09-19.09,12.6-21.6,2.7-4.5,4.5-11.7.9-16.2S199.47,72,199.47,72l-.28-.43s9.9-12.6,2.7-21.6-16.2-2.7-18.9.9c-.41.54-1.64,2.3-3.45,4.89l-.15-.39c-1.8-5.4-4.95-7.65-4.95-7.65-12.15-8.55-22.5,4.5-22.5,4.5-6.3,8.1-57.51,71.55-57.51,71.55C90.92,108.89,82,94.94,82,94.94c-20.43-23.85-34.32,0-34.32,0s15.16,32,17,47.25,5.4,45.9,8.1,54.9,2.79,55.73,2.79,55.73"/><line class="cls-3" x1="179.54" y1="55.73" x2="140.69" y2="112.94"/><path class="cls-3" d="M199.19,71.54s-33.3,51.3-36,54.9"/><path class="cls-7" d="M117,71.64a10.12,10.12,0,0,0-11.16,3,1.55,1.55,0,0,0,0,2.12,1.5,1.5,0,0,0,2.12,0,9.06,9.06,0,0,1,.84-.91l.26-.23.07-.06a5.74,5.74,0,0,1,.5-.36,11.46,11.46,0,0,1,1.09-.59c.15-.08-.17.06.09,0l.25-.1q.33-.12.66-.21l.61-.14c.1,0,.64-.09.35-.06a10.2,10.2,0,0,1,1.24-.06l.68,0c-.3,0,.26,0,.35.07a7.8,7.8,0,0,1,1.25.37,1.51,1.51,0,0,0,1.85-1,1.54,1.54,0,0,0-1-1.84Z"/><path class="cls-7" d="M151.53,42.39c.13-.11.14-.12,0,0l.22-.16.46-.31a9.61,9.61,0,0,1,.95-.52c.05,0,.56-.24.27-.13.16-.06.33-.13.51-.18a8.41,8.41,0,0,1,1-.28l.47-.1.27,0h0a10.09,10.09,0,0,1,1.09-.06c.37,0,.73,0,1.09,0,.18,0,.18,0,0,0l.26,0a5.23,5.23,0,0,1,.54.12,1.5,1.5,0,0,0,.79-2.9,11.6,11.6,0,0,0-10,2.36,1.5,1.5,0,0,0,0,2.12,1.55,1.55,0,0,0,2.12,0Z"/><path class="cls-7" d="M215.78,71.19a5.44,5.44,0,0,1,.73.71c.11.13.11.13,0,0a.91.91,0,0,1,.11.16c.09.12.17.25.25.37l.24.46c0,.07.07.15.11.23h0c.1.28.2.57.28.86s.15.65.21,1c0,.18,0,.2,0,0l0,.3c0,.2,0,.4.05.6.06.75.07,1.5.07,2.25a1.5,1.5,0,0,0,3,0c0-3.2-.27-6.9-3-9.09a1.55,1.55,0,0,0-2.12,0,1.53,1.53,0,0,0,0,2.13Z"/><path class="cls-7" d="M219.27,84.54a1.5,1.5,0,0,0,0-3,1.5,1.5,0,0,0,0,3Z"/><path class="cls-7" d="M129.29,54.42A8.52,8.52,0,0,0,127.71,60a1.66,1.66,0,0,0,.44,1.06A1.5,1.5,0,0,0,130.71,60a7.22,7.22,0,0,1,0-1.54l-.06.4a8,8,0,0,1,.49-1.8l-.15.36a7.23,7.23,0,0,1,.84-1.48,1.5,1.5,0,0,0-.54-2,1.56,1.56,0,0,0-1.16-.15,1.74,1.74,0,0,0-.89.69Z"/><path class="cls-7" d="M130.14,66.15a1.5,1.5,0,0,0,0-3,1.5,1.5,0,0,0,0,3Z"/><path class="cls-8" d="M216.74,103.49s-4.64.9-11.32,10.35-26.48,29.25-26.48,29.25l18.9-28.8S212.24,100.79,216.74,103.49Z"/><line class="cls-3" x1="195.59" y1="113.84" x2="178.49" y2="141.74"/><circle class="cls-5" cx="221.69" cy="182.24" r="17.55"/><path class="cls-7" d="M224.05,172c.12,0,.18,0,0,0l.35.06c.21,0,.41.09.62.15l.54.17.33.13c.22.08-.18-.09,0,0,.38.2.76.38,1.13.6l.54.35.23.17c.21.15,0,0,.09.07a16.9,16.9,0,0,1,1.81,1.78c.15.17.28.34.42.51s-.12-.15,0,0l.18.24c.27.37.52.76.77,1.15a1.53,1.53,0,0,0,2.06.53,1.51,1.51,0,0,0,.53-2,17.65,17.65,0,0,0-4-4.57,11.13,11.13,0,0,0-5.68-2.34,1.49,1.49,0,0,0-1.5,1.5,1.54,1.54,0,0,0,1.5,1.5Z"/><path class="cls-7" d="M233.53,182.29a1.5,1.5,0,0,0,0-3,1.5,1.5,0,0,0,0,3Z"/><circle class="cls-5" cx="48.44" cy="49.49" r="17.55"/><path class="cls-7" d="M50.8,39.2c.12,0,.18,0,0,0l.35.06c.21,0,.41.09.62.15l.54.17.33.13c.22.08-.18-.09,0,0,.38.2.76.38,1.13.6l.54.35.23.17c.21.15,0,0,.09.07a16.9,16.9,0,0,1,1.81,1.78c.15.17.28.34.42.51l0,0,.18.24c.27.37.52.76.77,1.15a1.53,1.53,0,0,0,2.06.53,1.51,1.51,0,0,0,.53-2,17.65,17.65,0,0,0-4-4.57A11.13,11.13,0,0,0,50.8,36.2a1.49,1.49,0,0,0-1.5,1.5,1.54,1.54,0,0,0,1.5,1.5Z"/><path class="cls-7" d="M60.28,49.54a1.5,1.5,0,0,0,0-3,1.5,1.5,0,0,0,0,3Z"/><circle class="cls-5" cx="187.04" cy="213.29" r="11.7"/><path class="cls-7" d="M188.61,206.93c.21,0-.06,0-.12,0l.23,0,.42.1.36.12.22.08c.18.07-.27-.13-.1,0s.51.25.75.4l.36.23.15.12c.22.15-.18-.16,0,0a11.35,11.35,0,0,1,1.21,1.19c.1.11.19.23.28.34s-.17-.23-.06-.07l.12.16c.18.25.35.5.52.76a1.5,1.5,0,0,0,2.59-1.51,12.39,12.39,0,0,0-2.8-3.19,8,8,0,0,0-4.09-1.67,1.5,1.5,0,0,0-1.06.44,1.52,1.52,0,0,0-.44,1.06,1.5,1.5,0,0,0,.44,1.06,1.71,1.71,0,0,0,1.06.44Z"/><path class="cls-7" d="M194.93,213.83a1.5,1.5,0,0,0,0-3,1.5,1.5,0,0,0,0,3Z"/><circle class="cls-5" cx="233.39" cy="216.44" r="7.65"/><path class="cls-7" d="M234.42,212.8l.12,0-.4-.06a4,4,0,0,1,1,.27l-.36-.15a4.49,4.49,0,0,1,1,.6l-.3-.24a6.92,6.92,0,0,1,1.1,1.13l-.23-.3c.16.22.32.45.47.68a1.65,1.65,0,0,0,.89.69,1.5,1.5,0,0,0,1.85-1.05,1.52,1.52,0,0,0-.15-1.16,8.73,8.73,0,0,0-2-2.23,5.08,5.08,0,0,0-1.16-.71,7.26,7.26,0,0,0-.88-.34,7.65,7.65,0,0,0-.94-.15,1.54,1.54,0,0,0-1.07.44,1.51,1.51,0,0,0-.43,1.06,1.49,1.49,0,0,0,.43,1.06l.31.24a1.51,1.51,0,0,0,.76.2Z"/><path class="cls-7" d="M238.55,217.31a1.5,1.5,0,0,0,0-3,1.5,1.5,0,0,0,0,3Z"/><circle class="cls-5" cx="31.34" cy="94.49" r="7.65"/><path class="cls-7" d="M32.37,90.85l.12,0-.4-.06a4,4,0,0,1,.95.27l-.36-.15a4.49,4.49,0,0,1,1,.6l-.3-.24a6.92,6.92,0,0,1,1.1,1.13l-.23-.3c.16.22.32.45.47.68a1.65,1.65,0,0,0,.89.69,1.5,1.5,0,0,0,1.85-1,1.52,1.52,0,0,0-.15-1.16,8.73,8.73,0,0,0-2-2.23,5.08,5.08,0,0,0-1.16-.71,7.26,7.26,0,0,0-.88-.34,7.65,7.65,0,0,0-.94-.15,1.54,1.54,0,0,0-1.07.44,1.51,1.51,0,0,0-.43,1.06,1.49,1.49,0,0,0,.43,1.06l.31.24a1.51,1.51,0,0,0,.76.2Z"/><path class="cls-7" d="M36.5,95.36a1.5,1.5,0,0,0,0-3,1.5,1.5,0,0,0,0,3Z"/></g></g></svg>