<svg xmlns="http://www.w3.org/2000/svg" viewBox="0 0 275.52 275.52"><defs><style>.cls-1{fill:#f7c872;stroke:#db7e2a;}.cls-1,.cls-2,.cls-4,.cls-6{stroke-linecap:round;}.cls-1,.cls-2,.cls-4{stroke-linejoin:round;}.cls-1,.cls-2,.cls-4,.cls-6,.cls-7{stroke-width:5px;}.cls-2{fill:#c1bdbd;}.cls-2,.cls-4{stroke:#545352;}.cls-3{fill:#4f3710;opacity:0.15;}.cls-4{fill:#938f8f;}.cls-5{font-size:33.6px;font-family:BalooBhaijaan-Regular, Baloo Bhaijaan;}.cls-5,.cls-6{fill:#fff;}.cls-6{stroke:#fff;}.cls-6,.cls-7{stroke-miterlimit:10;}.cls-7{fill:#f9efef;stroke:#d1d0cf;}</style></defs><g id="Layer_2" data-name="Layer 2"><rect class="cls-1" x="132.7" y="97.08" width="17.85" height="132.3" rx="7.86"/><rect class="cls-1" x="55.52" y="139.6" width="17.85" height="132.3" rx="7.86" transform="translate(43.65 -8.85) rotate(11.86)"/><rect class="cls-1" x="204.63" y="139.6" width="17.85" height="132.3" rx="7.86" transform="translate(464.82 363.24) rotate(168.14)"/><polygon class="cls-2" points="40.83 54.55 30.32 187.9 247.03 183.06 237.59 54.55 40.83 54.55"/><polygon class="cls-3" points="39.25 49.83 37.15 69.78 241.19 68.71 239.69 54.55 39.25 49.83"/><polygon class="cls-3" points="57.1 185.28 52.65 205.23 76.13 205.23 80.68 187.9 57.1 185.28"/><polygon class="cls-3" points="221.13 185.28 225.58 205.23 202.1 205.23 197.55 187.9 221.13 185.28"/><rect class="cls-4" x="34" y="44.58" width="210" height="15.75" rx="5.21"/><text class="cls-5" transform="translate(101.43 112.9)">A B C</text><line class="cls-6" x1="92.8" y1="127.53" x2="187.3" y2="127.53"/><path class="cls-1" d="M74.38,19.9H205.72a9.4,9.4,0,0,1,9.4,9.4V39.85a0,0,0,0,1,0,0H65a0,0,0,0,1,0,0V29.3A9.4,9.4,0,0,1,74.38,19.9Z"/><rect class="cls-7" x="187.3" y="163.23" width="40.95" height="15.75" rx="4.38"/><rect class="cls-1" x="121.67" y="4.15" width="40.95" height="15.75" rx="4.38"/><rect class="cls-4" x="23.5" y="178.98" width="231" height="15.75" rx="5.21"/></g></svg>