<svg xmlns="http://www.w3.org/2000/svg" xmlns:xlink="http://www.w3.org/1999/xlink" viewBox="0 0 275.52 275.52"><defs><style>.cls-1,.cls-13,.cls-14,.cls-15,.cls-16{fill:none;}.cls-2{clip-path:url(#clip-path);}.cls-3{fill:#1a7c65;stroke:#06261e;}.cls-13,.cls-3{stroke-miterlimit:10;}.cls-3,.cls-5,.cls-6{stroke-width:5px;}.cls-4{clip-path:url(#clip-path-2);}.cls-5{fill:#debbf9;stroke:#332900;}.cls-14,.cls-15,.cls-16,.cls-5,.cls-6{stroke-linecap:round;stroke-linejoin:round;}.cls-6{fill:#844c21;stroke:#28190c;}.cls-7{clip-path:url(#clip-path-3);}.cls-8{fill:#0c0603;opacity:0.2;}.cls-9{fill:#051a23;}.cls-10{fill:#000100;}.cls-11{fill:#e55336;}.cls-12{fill:#fff;}.cls-13{stroke:#fff;stroke-width:1.02px;}.cls-14,.cls-15,.cls-16{stroke:#cce5f2;}.cls-14{stroke-width:0.68px;}.cls-15{stroke-width:0.78px;}.cls-16{stroke-width:0.82px;}.cls-17{fill:#763633;}.cls-18{clip-path:url(#clip-path-4);}</style><clipPath id="clip-path"><rect class="cls-1" x="0.5" y="-325.5" width="276" height="276"/></clipPath><clipPath id="clip-path-2"><rect class="cls-1" x="42.99" y="199.61" width="192.62" height="63.03"/></clipPath><clipPath id="clip-path-3"><path class="cls-1" d="M155.38,189.63H123.47a3,3,0,0,0-3,3v28.05A18.36,18.36,0,0,0,138.81,239H140a18.36,18.36,0,0,0,18.34-18.34V192.63A3,3,0,0,0,155.38,189.63Z"/></clipPath><clipPath id="clip-path-4"><path class="cls-1" d="M224.22,121.5a20.73,20.73,0,0,0-13.09.75c-1.84-31.27-9.38-52-10.1-53.94C191.3,36,158,23.36,112,34.64,71.52,44.54,51.82,77.5,57.59,124a18.65,18.65,0,0,0-8.69.41c-4.75,1.48-10.58,5.77-11.38,17.77a2.8,2.8,0,0,0,0,.41c.69,10.13,7.57,21.64,21,23,.72.07,1.43.11,2.14.11a18.25,18.25,0,0,0,8.6-2.07c13.62,25.2,37.86,39,69.64,39,2.46,0,4.95-.08,7.5-.25a70.21,70.21,0,0,0,47.27-22,67.66,67.66,0,0,0,11.68-17.4l1.07-1.11a19.06,19.06,0,0,0,6,.94,19.3,19.3,0,0,0,2.14-.11c13.46-1.34,20.34-12.85,21-23a2.81,2.81,0,0,0,0-.41C234.8,127.26,229,123,224.22,121.5Z"/></clipPath></defs><g id="Layer_2" data-name="Layer 2"><g class="cls-2"><path class="cls-3" d="M168.82-1.19H139.18a7.68,7.68,0,0,1-7.67-7.67V-99.28c0-4.23.44-7.66,4.67-7.66,9.88,2.88,25.76,2.88,35.64,0,4.23,0,4.67,3.43,4.67,7.66V-8.86A7.68,7.68,0,0,1,168.82-1.19Z"/></g><g class="cls-4"><path class="cls-5" d="M53.49,265.18,54.69,246c0-15.95,15.33-28.88,31.28-28.88H194.69c15.95,0,31.28,12.93,31.28,28.88l1.2,19.18"/></g><path class="cls-6" d="M123.47,192.63h31.91a0,0,0,0,1,0,0v30.6A12.78,12.78,0,0,1,142.59,236h-6.34a12.78,12.78,0,0,1-12.78-12.78v-30.6a0,0,0,0,1,0,0Z"/><g class="cls-7"><path class="cls-8" d="M166.52,207.53q-24.79,7.2-52.13,0V180.94h52.13Z"/></g><path class="cls-9" d="M224.68,107.46c.18,6.32-5.59,14.28-11.56,16.33,5.55,7.39,5,18.94-2.22,25.13s-18.38,5.06-24.76-1.5c-1.89,10-10.26,18.42-20.52,19.48s-20.39-5.84-24-15.48a20.7,20.7,0,0,1-9.05,10.22,14.88,14.88,0,0,1-6.85,1.75,14.34,14.34,0,0,1-14-10.87A26.39,26.39,0,0,1,94,164.65c-4.36.74-8.43-1-9.16-5.76-.49-3.23,1-6,3.11-8.17-11.38,3-30.35-.52-38-9.94-6-7.42-6.13-20.11,3.17-24.45-8.28-3.28-14.31-11.8-13.85-21s7.22-17.07,15.83-19.5C49.21,65.81,48.14,52,57,41.66,63.32,34.24,76.36,29.85,89.57,36c-1-11.53,11.48-19.63,21.48-13.43,4.73-14.22,17.14-14.87,28.18-14.25,2.9.15,15.05,3.47,20.5,14.59,5.57-6.5,13.68-6.72,22-3.25,7.12,2.93,11.57,11.18,9.4,18.6,11.53-3.71,22.56,7.07,19.26,18.83,6.59,1.38,14.17,8.48,14.27,16.82.08,7.41-1.36,13.67-7,17.65C223.67,95.49,224.47,100,224.68,107.46Z"/><path class="cls-6" d="M198.18,69.28s10.35,27.07,10.35,66.61c0,30.85-24.63,61-62.3,63.49-35.4,2.3-72.17-11.95-83.21-61.61s4.6-89.18,49.65-100.22S189,38.47,198.18,69.28Z"/><path class="cls-10" d="M149.52,155.34a15,15,0,0,0,1.94-5.64A55.09,55.09,0,0,0,127.38,148a13.51,13.51,0,0,0,.64,3.57A43,43,0,0,1,149.52,155.34Z"/><path class="cls-11" d="M128,151.53c1,3.24,3.68,7.65,10.64,8.58,5.94.8,9.14-1.91,10.86-4.77A43,43,0,0,0,128,151.53Z"/><path class="cls-12" d="M163.32,144.4s-7.21-1.31-24-1.36h-.91c-16.84.05-24.05,1.36-24.05,1.36C96.9,150.82,91.86,176,91.86,176c9.16,9.85,25.19,16.27,46.73,16.27H139c21.53,0,37.57-6.42,46.73-16.27C185.77,176,180.73,150.82,163.32,144.4Z"/><path class="cls-13" d="M61.49,141.75C63.4,158.67,86.4,174,96.38,178.87"/><path class="cls-13" d="M116.83,145.15S74,139.57,61,126.56"/><path class="cls-13" d="M161.09,145.15s26.31-2.48,47-23.18"/><path class="cls-13" d="M212.8,143.59c3.41,18.3-27,32.42-33.75,36.59"/><path class="cls-14" d="M109.94,153.36s25.5,6.45,56.58-.58"/><path class="cls-15" d="M105.69,162.73s29.33,7.42,65.08-.67"/><path class="cls-15" d="M105.69,180.32s29.33,7.42,65.08-.68"/><path class="cls-16" d="M103.93,171.61s30.92,7.81,68.59-.72"/><path class="cls-6" d="M68.54,132.91c-5-6.35-26.5-13.31-28,9.51,1.55,22.66,29.33,26.48,33.62,10.79"/><path class="cls-17" d="M54,144.7a.56.56,0,0,1-.44-.22.54.54,0,0,1,.11-.76c.09-.07,9.25-6.76,16.05.05a.55.55,0,0,1,0,.77.56.56,0,0,1-.78,0c-6.13-6.14-14.53,0-14.62.05A.5.5,0,0,1,54,144.7Z"/><rect class="cls-10" x="103.18" y="115.66" width="9.81" height="16.78" rx="4.09"/><rect class="cls-10" x="161.56" y="115.66" width="9.81" height="16.78" rx="4.09"/><path class="cls-6" d="M98.93,108.33s4.59-5.77,14.06-3.45"/><path class="cls-6" d="M175.62,107.46S171,101.69,161.56,104"/><path class="cls-6" d="M204.58,130c5-6.35,26.5-13.31,28,9.51-1.55,22.66-29.33,26.48-33.62,10.79"/><path class="cls-17" d="M219.16,141.74a.53.53,0,0,0,.44-.22.54.54,0,0,0-.11-.76c-.09-.07-9.25-6.75-16.05.05a.55.55,0,0,0,0,.77.54.54,0,0,0,.78,0c6.13-6.14,14.53,0,14.62.06A.55.55,0,0,0,219.16,141.74Z"/><g class="cls-18"><path class="cls-8" d="M91.86,46.9S52.28,203.17,159.61,197.24L25.47,203.17,10.87,99.86l27-48.6L94,30.39Z"/></g><path class="cls-9" d="M218.47,120.37c-10.37,6.62-16.82-1.91-18.51-4.43-2-3-1.5-6.85-.1-10-7.64-1.33-6.85-10.23-4.93-16.34-6.08,3.07-13.91,2.22-18.74-2.89-4.4-4.66-5-11.58-2.54-17.19-5.29,3.87-11.89,6.3-18.25,3.28-5.6-2.66-6.93-7.85-6.73-13.25-4.57,10.71-12.47,20.4-24.31,22.88a27.94,27.94,0,0,1-29.48-12.7c1.68,7.51,2.06,15.46-3,21.71-4.14,5.06-11.75,6.69-16.95,2.84,2.53,9.13,4.1,22.16-2.76,29.38-2.73,2.88-11.17,1.88-14.85.4-4.1-1.64-17.76-95.11,76.23-98.07C220.44,23.24,222.47,117.82,218.47,120.37Z"/></g></svg>