<svg xmlns="http://www.w3.org/2000/svg" xmlns:xlink="http://www.w3.org/1999/xlink" viewBox="0 0 275.52 275.52"><defs><style>.cls-1{fill:none;}.cls-2{clip-path:url(#clip-path);}.cls-3{fill:#e5b08c;stroke:#7a4c41;}.cls-3,.cls-4{stroke-linecap:round;stroke-linejoin:round;stroke-width:5px;}.cls-4{fill:#f78181;stroke:#a04747;}.cls-5{fill:#ffaeae;}</style><clipPath id="clip-path"><rect class="cls-1" x="27.34" y="13.34" width="220.83" height="242.47"/></clipPath></defs><g id="Layer_2" data-name="Layer 2"><g class="cls-2"><path class="cls-3" d="M205,258.12s-8.54-45.62,9.46-66.62,51-66,9-135-142-33-162,3-10,71.18-10,71.18,3,8.41-2.5,15.61-15.78,18.89-15.78,18.89-4.28,3.32,0,8.82S49.5,185.5,49.5,185.5a5.84,5.84,0,0,1,2,7.29c-2,4.71-3,6.71-3,6.71-.54,2.36,1,5.35,8,10,0,0-6,4-5,7,.63,1.9,10,8,9,13s1,18,19,17c0,0,10,0,18-3,3.45-1.29,7.64,6,11.29,14.62"/><path class="cls-4" d="M182.5,182.5s-7-31-23-39c0,0-26,10-45-16,0,0-33,12-37-16,0,0-12-9-9-22s19-33,31-29c0,0,5-8,13-12,4.82-2.41,25-9,44,7,0,0,16-10,31,1s4,24,4,24,44-8,31,53c0,0-8,22-27,19,0,0-5,14,1,24"/><path class="cls-4" d="M113.5,84.5a7.5,7.5,0,0,0-3,6s-14-2-17,9"/><path class="cls-4" d="M109.5,72.5s-2-9-10-12"/><path class="cls-4" d="M120.5,68.5s8.52-6,17.26-1.48"/><path class="cls-4" d="M135.5,95.5s-21,6-19,26"/><path class="cls-4" d="M148.5,117.5s24-12,14-28"/><path class="cls-4" d="M156.5,55.5s-8,8-7,19"/><path class="cls-4" d="M179.5,86.5s7-6,12-6"/><path class="cls-4" d="M194.5,97.5s14,2,15,17"/><path class="cls-4" d="M186.47,121.5s-13,19,9,31"/><path class="cls-4" d="M197.5,129.5s7,6,13,2"/><path class="cls-5" d="M169,62.06c1.39-.12,2.79-.21,4.19-.22a6.86,6.86,0,0,1,3.24.51c1.87.94,3,2.88,4,4.62a1.5,1.5,0,0,0,2.59-1.51c-1.3-2.17-2.79-4.51-5.11-5.7-2.7-1.38-6-.95-8.95-.7a1.54,1.54,0,0,0-1.5,1.5,1.51,1.51,0,0,0,1.5,1.5Z"/><path class="cls-5" d="M213.28,96.54c.05,0,.26.19.07,0l.06,0,.31.27a7.8,7.8,0,0,1,.58.57c.19.2.36.46.56.65-.09-.09-.18-.24,0-.05l.1.14.25.38c.15.23.28.47.41.71l.18.36.09.21c.08.17-.12-.32,0-.07a10.75,10.75,0,0,1,.49,1.65,1.5,1.5,0,0,0,1.84,1,1.55,1.55,0,0,0,1-1.85,11,11,0,0,0-4.4-6.7,1.52,1.52,0,0,0-1.16-.16,1.59,1.59,0,0,0-.9.69,1.55,1.55,0,0,0,.54,2.06Z"/><path class="cls-5" d="M155.54,96a7.54,7.54,0,0,1-.1,4.94c.06-.14.05-.11,0,0l-.12.24c-.08.15-.18.31-.27.46l-.19.27c-.13.19.14-.15,0,0s-.24.27-.36.39a5.48,5.48,0,0,1-.44.4c.21-.17-.16.1-.24.14a1.71,1.71,0,0,1-.23.13s-.35.18-.17.1-.1,0-.13,0l-.32.1a1.5,1.5,0,0,0,.8,2.89,7,7,0,0,0,4.38-3.9,10.63,10.63,0,0,0,.3-7,1.5,1.5,0,1,0-2.89.8Z"/><path class="cls-5" d="M117.44,56.81a6.62,6.62,0,0,0,1.77-1.34c.23-.23.45-.46.69-.68l.17-.15s.29-.22.11-.1.06,0,.09,0l.25-.16a1.32,1.32,0,0,1,.43-.21l-.14.05.17-.06.22-.08a9.07,9.07,0,0,1,1-.24l.3,0c.23,0-.26,0,0,0l.55,0,1.1-.07a1.5,1.5,0,0,0,0-3,11.91,11.91,0,0,0-4.9,1,7.34,7.34,0,0,0-1.85,1.43c-.25.26-.5.51-.78.75,0,0-.21.19-.06.06s-.08.05-.12.08a3.84,3.84,0,0,1-.49.27,1.5,1.5,0,0,0-.53,2.05,1.54,1.54,0,0,0,2,.54Z"/><path class="cls-5" d="M86.17,72.75c-2.51,3.15-5.15,6.54-6.44,10.4a21.66,21.66,0,0,0-.42,11.27c.39,1.88,3.28,1.09,2.89-.8A18.66,18.66,0,0,1,82.62,84c1.12-3.33,3.51-6.36,5.67-9.08a1.55,1.55,0,0,0,0-2.12,1.5,1.5,0,0,0-2.12,0Z"/><path class="cls-5" d="M93.28,117.38a2.67,2.67,0,0,0,.48.41,3.06,3.06,0,0,0,.58.27,1.17,1.17,0,0,0,.25.07,3.59,3.59,0,0,0,.65.07,1.27,1.27,0,0,0,.58-.13,1.34,1.34,0,0,0,.79-.8,1,1,0,0,0,.13-.57l0-.4a1.47,1.47,0,0,0-.39-.67l-.3-.23a1.44,1.44,0,0,0-.76-.2H95l.4,0a1.37,1.37,0,0,1-.29-.07l.36.15a1,1,0,0,1-.24-.15l.3.24-.15-.15a1.24,1.24,0,0,0-.48-.31,1.36,1.36,0,0,0-1.16,0,1.17,1.17,0,0,0-.48.31l-.24.31a1.5,1.5,0,0,0-.2.75l0,.4a1.39,1.39,0,0,0,.39.66Z"/><path class="cls-5" d="M143.74,136.67l3.09.4a1.52,1.52,0,0,0,1.06-.44,1.56,1.56,0,0,0,.44-1.06,1.54,1.54,0,0,0-.44-1.06l-.31-.24a1.5,1.5,0,0,0-.75-.2l-3.09-.4a1.47,1.47,0,0,0-1.06.44,1.5,1.5,0,0,0,0,2.12l.31.23a1.42,1.42,0,0,0,.75.21Z"/></g></g></svg>