<svg xmlns="http://www.w3.org/2000/svg" viewBox="0 0 275.52 275.52"><defs><style>.cls-1{fill:#fff;}.cls-2{fill:#020202;}.cls-3{fill:#116ec1;stroke:#000;stroke-linecap:round;stroke-linejoin:round;stroke-width:5px;}</style></defs><g id="Layer_2" data-name="Layer 2"><circle class="cls-1" cx="137.76" cy="137.76" r="87.49"/><path d="M199.7,75.83a87.59,87.59,0,1,0,0,123.86A87.67,87.67,0,0,0,199.7,75.83ZM153.35,56.35a82.46,82.46,0,0,1,43,22.78,84,84,0,0,1,7.05,8l-3.77,2.44L171.53,79.51,152.42,58Zm18.3,74.83-14.51,33.21-35,2.88L102,133.84l16.61-28.7,35.15-2ZM79.13,79.13a82.24,82.24,0,0,1,30.93-19.51l3.71,3.08L97.5,83a5.87,5.87,0,0,1,1.87,2.79l18-22.67,33.05-2.68,17.8,20L153.74,100l-35.28,2-16.9-16.91L99.3,82.84l-.92-.92-27.64,20-5.51-4.38A82.44,82.44,0,0,1,79.13,79.13ZM57.43,158.2a83.3,83.3,0,0,1,6.31-57.81l6.19,4.92L71.64,133h0l-7,28.89Zm9.84,6,7.54-30.91,24.75,2.6,20.37,33.85-7.39,22.83-27.05-2Zm14.52,34.74,3.62-5.23,28,2.08,26.39,16,2,8.78A82.73,82.73,0,0,1,81.79,198.93Zm114.6-2.54A82.47,82.47,0,0,1,145,220.32l-2.12-9.2,27.84-17.75,24.59-6.23,2.44,7.9Q197.07,195.72,196.39,196.39Zm-.87-12.55L171.31,190,159.85,166l15-34.35,25.63-3.57,10.73,26Zm18.16-32-10.32-25-1.83-34.73,3.78-2.45a83,83,0,0,1,14.63,58.84Z"/><path class="cls-2" d="M173,129.47l-17.43-27.29a1.26,1.26,0,0,1-.1-.72l14.17-19.17a.76.76,0,0,1,.55-.24.93.93,0,0,1,.23,0l27.82,10c.3.17.37.27.37.28a.33.33,0,0,0,0,.1l1.75,33.25-.72.15-25.56,3.56a8.05,8.05,0,0,1-1.06.1Z"/><path d="M170.83,84.87,196.17,94l1.56,29.6-23.47,3.27-16-25,12.53-16.95m-.65-5.32a3.33,3.33,0,0,0-2.43,1.08L153.3,100.17a3.53,3.53,0,0,0,0,3.15l17.89,28A2.34,2.34,0,0,0,173,132a10.13,10.13,0,0,0,1.4-.13L200,128.28c2.37-.47,2.65-.67,2.88-1.27l-1.83-34.73a2.85,2.85,0,0,0-1.85-2.54L171.1,79.66a3.78,3.78,0,0,0-.92-.11Z"/><path class="cls-2" d="M201,194.65a2.4,2.4,0,0,1-.88-.46l-.05-.05,0,0-2.39-7.73a1.46,1.46,0,0,1,0-1.35l15.66-29.69a4.89,4.89,0,0,1,1.55-1.35l5.67-3c.31.06.73.16,1.15.28A84.32,84.32,0,0,1,201,194.65Z"/><path d="M222.61,152.71h0m-4.1,2.2a81.7,81.7,0,0,1-17,35.36l-1.37-4.44,15.37-29.15a2.64,2.64,0,0,1,.65-.51l2.38-1.26m1.73-6.48a.56.56,0,0,0-.3.06l-6.26,3.32a7.33,7.33,0,0,0-2.47,2.24l-15.69,29.76a3.89,3.89,0,0,0-.25,3.31l2.44,7.89a2.39,2.39,0,0,0,.7,1,6.93,6.93,0,0,0,3.42,1.44,87.1,87.1,0,0,0,22.66-47.81,13.26,13.26,0,0,0-4.25-1.21Z"/><path class="cls-2" d="M78.18,198.56l-.63-.61a84.86,84.86,0,0,1-21.76-37.26l.88,0L63.33,164a6,6,0,0,1,1.82,1.56l18,26a2.35,2.35,0,0,1,0,1l-3.47,5A5.55,5.55,0,0,1,78.18,198.56Z"/><path d="M59.77,165l2.31,1.17a3.79,3.79,0,0,1,1,.77l.06.08,17.3,25-2.12,3.06A82.41,82.41,0,0,1,59.77,165m-3-6.88a25.58,25.58,0,0,0-4.09.37,87.07,87.07,0,0,0,23.14,41.19c.55.55,1.12,1.08,1.69,1.61A7,7,0,0,0,81.75,199l3.62-5.23a4.94,4.94,0,0,0,.09-3.14L67.23,164.22a8.47,8.47,0,0,0-2.66-2.35l-7.18-3.64s-.26-.07-.65-.07Z"/><path class="cls-2" d="M140.46,209.37l-25.53-15.46a.88.88,0,0,1-.09-.67l7.35-22.7a1.6,1.6,0,0,1,.46-.77l34.45-2.84c.14,0,.23,0,.43.36l11.23,23.44a2,2,0,0,1-.12.93l-27.27,17.39-.12.08a1.24,1.24,0,0,1-.77.24Z"/><path d="M155.84,169.54l10,20.93-25.23,16.08-23-13.91,6.64-20.5,31.54-2.6m-31.28,1.79h0m32.46-6.9-35,2.88a3.68,3.68,0,0,0-2.19,2.46l-7.39,22.83a3.41,3.41,0,0,0,.82,3.21l26.4,16a4.92,4.92,0,0,0,.84.07,3.69,3.69,0,0,0,2.23-.72l27.85-17.74a4.74,4.74,0,0,0,.62-3.41l-11.46-23.93a3,3,0,0,0-2.7-1.64Z"/><path class="cls-2" d="M74.2,130.7a.24.24,0,0,1-.21-.22L72.36,104a.25.25,0,0,1,.1-.21L98,85.31a.23.23,0,0,1,.14,0,.21.21,0,0,1,.17.07l18.19,18.11a.23.23,0,0,1,0,.29l-17,29.47a.25.25,0,0,1-.21.12Z"/><path d="M99.43,87.34h0m-1.56,1.13L113.47,104,98,130.69l-21.67-2.27L74.93,105.1,97.87,88.47m.23-5.7a2.7,2.7,0,0,0-1.6.52L71,101.78a2.73,2.73,0,0,0-1.12,2.39l1.62,26.46a2.75,2.75,0,0,0,2.45,2.56l25,2.63h.29a2.72,2.72,0,0,0,2.37-1.37l17-29.47a2.74,2.74,0,0,0-.44-3.31L100,83.56a2.76,2.76,0,0,0-1.94-.79Z"/><path class="cls-2" d="M114.06,57.79l2.65,1.83c12.53-1,22.37-2.1,31.64-2.93l.7-1.68C138.21,53.62,126.53,54.61,114.06,57.79Z"/><path d="M139.19,54.4a101.73,101.73,0,0,0-25.13,3.39l2.65,1.83c12.53-1,22.37-2.1,31.64-2.93l.7-1.68a77.81,77.81,0,0,0-9.86-.61Z"/><line class="cls-3" x1="31.52" y1="33.52" x2="62.3" y2="64.3"/><line class="cls-3" x1="35.68" y1="64.3" x2="51.98" y2="80.61"/><line class="cls-3" x1="33.85" y1="91.05" x2="46.26" y2="103.46"/><line class="cls-3" x1="63.27" y1="36.84" x2="76.38" y2="49.94"/><line class="cls-3" x1="90.45" y1="36.84" x2="101.51" y2="47.9"/></g></svg>