<svg xmlns="http://www.w3.org/2000/svg" viewBox="0 0 275.52 275.52"><defs><style>.cls-1,.cls-7{fill:#191609;}.cls-1{stroke:#191812;}.cls-1,.cls-10,.cls-11,.cls-12,.cls-13,.cls-14,.cls-15,.cls-2,.cls-4,.cls-5,.cls-6{stroke-linecap:round;stroke-linejoin:round;}.cls-1,.cls-11,.cls-12,.cls-13,.cls-14,.cls-15,.cls-2,.cls-4,.cls-5,.cls-6{stroke-width:5px;}.cls-10,.cls-12,.cls-15,.cls-2{fill:none;}.cls-2,.cls-6{stroke:#664521;}.cls-3{fill:#f74c48;}.cls-4{fill:#ffbf1f;stroke:#ff9a22;}.cls-5{fill:#6cb9e0;stroke:#539ec9;}.cls-6{fill:#f9c287;}.cls-8,.cls-9{fill:#cdcbef;}.cls-10,.cls-9{stroke:#c6c6f4;}.cls-9{stroke-miterlimit:10;}.cls-11{fill:#f74d7e;stroke:#992e52;}.cls-12,.cls-14{stroke:#dda772;}.cls-13{fill:#5ddbb7;stroke:#3d8779;}.cls-14{fill:#f9cea7;}.cls-15{stroke:#191609;}</style></defs><g id="Layer_7" data-name="Layer 7"><path class="cls-1" d="M200.11,77.93S209.91,102,211,116.21s24.25,14.44,38.28,16.75a19.14,19.14,0,0,0,10.09-1.05c.91-3.85.23-7,.67-10.12,1.91,1.54,6.08,3.9,8.33,4.21a30.21,30.21,0,0,0,4.07-4.75s-3.13-3.27-7.77-12.81-.54-21.93-.68-32.69-11.3-20.16-21-23-25.75,4-25.75,4-17-9.26-23.57,2.59-10.76,11.85-10.76,11.85S187.71,82.84,200.11,77.93Z"/><path class="cls-2" d="M172.18,79.75l1.64,16.36s12.75,28.08,41.85,35.11"/><path class="cls-2" d="M237.27,194s-6.72,29.79,6,52.49"/><line class="cls-1" x1="232.36" y1="247.11" x2="244.17" y2="247.11"/><path class="cls-3" d="M220,55.63s21.76,6.41,23.3,28.2c0,0,3.52-5.84.37-16.45-3-10.06-17-13.8-17-13.8Z"/><path class="cls-4" d="M21.48,72.34S-7,66.58,7.31,113.32a31.32,31.32,0,0,1,5.07-12.14c4.21-6,10.41-9,7.1-18.35C15.37,71.21,21.48,72.34,21.48,72.34Z"/><path class="cls-2" d="M218.27,194s-6.72,29.79,6,52.49"/><line class="cls-1" x1="213.36" y1="247.11" x2="225.17" y2="247.11"/><path class="cls-5" d="M217,129.69s5.45-3.81,18.52-2.17,17.17,31.6,17.17,31.6,3.54,27.24,3.81,36.5c-11.65,6.41-39.91,7.36-56.39,0C200.11,195.62,215.64,151.22,217,129.69Z"/><path class="cls-6" d="M228.26,129.47h-2.13a4.62,4.62,0,0,1-4.62-4.63v-3.76l11.81-2.15-.44,5.91A4.62,4.62,0,0,1,228.26,129.47Z"/><path class="cls-6" d="M214.45,73.34s9.09,11,26.16,8.43c0,0,1.68,6.79,0,7.74,0,0,3.49-2.45,4.31-5.18,0,0,3.54-4.36,7.22-.81s2.45,11.71,1.64,13.07-3,3.41-6.41,1c0,0,4.82,11.79-7.49,21-12.78,9.54-38.68,5.18-40.32-15.8,0,0,.55-7.9,0-11.44s-1.73-15.65.95-14.85S211.55,76.71,214.45,73.34Z"/><rect class="cls-7" x="204.47" y="93.89" width="6.81" height="4.45" rx="2.22"/><rect class="cls-7" x="218.1" y="93.89" width="6.81" height="4.45" rx="2.22"/><path class="cls-8" d="M197.11,101.27s20.8,5.54,37.32-2.09c0,0-3.9,16.54,5.91,17.07,0,0-9.54,18.44-33,5.09C207.37,121.34,195,113.62,197.11,101.27Z"/><path class="cls-9" d="M201.33,109.13a60.77,60.77,0,0,0,25.41,0"/><path class="cls-9" d="M202.85,114.71a60.53,60.53,0,0,0,25.4,0"/><path class="cls-9" d="M207.33,120.3a60.53,60.53,0,0,0,25.4,0"/><path class="cls-10" d="M243.33,83.83c-2,5.81-7.41,14-11.48,18.35"/><path class="cls-10" d="M238.93,117s9.26-8.18,11.85-15.81"/><ellipse class="cls-11" cx="23.79" cy="81.38" rx="7.42" ry="11.81"/><path class="cls-2" d="M240.34,131.73s17.16,10,26.06,41.55l2,12"/><path class="cls-4" d="M87.33,77.93S77.52,102,76.43,116.21s-63.3,4.09-50-40.46c3.08-10.31,8.92-20.52,18-23C82.54,42.21,101.43,73.34,87.33,77.93Z"/><path class="cls-12" d="M111.4,79.75V96.34s-10.54,27.85-39.64,34.88"/><path class="cls-12" d="M50.17,194s6.72,29.79-6,52.49"/><line class="cls-1" x1="55.07" y1="247.11" x2="43.27" y2="247.11"/><path class="cls-12" d="M69.17,194s6.72,29.79-6,52.49"/><line class="cls-1" x1="74.07" y1="247.11" x2="62.27" y2="247.11"/><path class="cls-13" d="M70.44,129.69s-5.45-3.81-18.52-2.17-17.17,31.6-17.17,31.6-3.54,27.24-3.81,36.5c11.64,6.41,39.91,7.36,56.39,0C87.33,195.62,71.8,151.22,70.44,129.69Z"/><path class="cls-14" d="M59.18,129.47h2.13a4.62,4.62,0,0,0,4.62-4.63v-3.76l-11.81-2.15.43,5.91A4.63,4.63,0,0,0,59.18,129.47Z"/><path class="cls-14" d="M73,73.34s-9.08,11-26.15,8.43c0,0-1.68,6.79,0,7.74,0,0-3.5-2.45-4.31-5.18,0,0-3.55-4.36-7.22-.81s-2.46,11.71-1.64,13.07,3,3.41,6.4,1c0,0-4.81,11.79,7.5,21,12.77,9.54,38.68,5.18,40.32-15.8,0,0-.55-7.9,0-11.44s1.73-15.65-1-14.85S75.89,76.71,73,73.34Z"/><rect class="cls-7" x="77.34" y="89.37" width="4.45" height="8.96" rx="2.22" transform="translate(159.14 187.71) rotate(-180)"/><rect class="cls-7" x="62.96" y="89.37" width="4.45" height="8.96" rx="2.22" transform="translate(130.36 187.71) rotate(-180)"/><path class="cls-8" d="M90.33,101.27S69.53,106.81,53,99.18c0,0,3.9,16.54-5.91,17.07,0,0,9.54,18.44,33,5.09C80.07,121.34,92.42,113.62,90.33,101.27Z"/><path class="cls-9" d="M86.11,109.13a60.77,60.77,0,0,1-25.41,0"/><path class="cls-9" d="M84.59,114.71a60.53,60.53,0,0,1-25.4,0"/><path class="cls-9" d="M80.11,120.3a60.57,60.57,0,0,1-25.41,0"/><path class="cls-10" d="M44.11,83.83c2,5.81,7.4,14,11.48,18.35"/><path class="cls-10" d="M48.51,117s-9.26-8.18-11.85-15.81"/><path class="cls-12" d="M47.1,131.73s-17.16,10-26.06,41.55l-2,12"/><polyline class="cls-15" points="107.15 158.29 97.83 148.97 107.15 139.65"/><line class="cls-15" x1="97.83" y1="148.97" x2="183.35" y2="148.97"/><polyline class="cls-15" points="177.83 158.29 187.15 148.97 177.83 139.65"/><line class="cls-15" x1="98.03" y1="72.12" x2="99.94" y2="74.25"/><line class="cls-15" x1="111.4" y1="66.22" x2="111.4" y2="69.85"/><line class="cls-15" x1="124.73" y1="71.12" x2="122.42" y2="73.34"/><line class="cls-15" x1="154.65" y1="76.51" x2="157.16" y2="77.88"/><line class="cls-15" x1="165.24" y1="66.45" x2="166.47" y2="69.87"/><line class="cls-15" x1="179.45" y1="66.57" x2="178.02" y2="69.44"/></g></svg>