<svg xmlns="http://www.w3.org/2000/svg" xmlns:xlink="http://www.w3.org/1999/xlink" viewBox="0 0 275.52 275.52"><defs><style>.cls-1,.cls-10,.cls-5,.cls-8{fill:none;}.cls-2{fill:#f7a021;}.cls-3{clip-path:url(#clip-path);}.cls-4{fill:#ffcc78;}.cls-5{stroke:#b25d10;}.cls-5,.cls-6,.cls-8{stroke-miterlimit:10;}.cls-10,.cls-5,.cls-6{stroke-width:5px;}.cls-6{fill:#ffb00a;stroke:#a3661c;}.cls-7{fill:#f77500;}.cls-8{stroke:#000;stroke-width:6px;}.cls-10,.cls-8{stroke-linecap:round;}.cls-9{fill:#fff;}.cls-10{stroke:#603700;stroke-linejoin:round;}</style><clipPath id="clip-path"><path class="cls-1" d="M141.56,15.34l12.31,33.31a9.74,9.74,0,0,0,15.38,4.12l27.31-22.7a4.33,4.33,0,0,1,7,4.07l-6,35A9.75,9.75,0,0,0,208.86,80.4l35-6a4.33,4.33,0,0,1,4.07,7l-22.7,27.31a9.74,9.74,0,0,0,4.12,15.38l33.31,12.31a4.32,4.32,0,0,1,0,8.12l-33.31,12.31a9.74,9.74,0,0,0-4.12,15.38l22.7,27.31a4.33,4.33,0,0,1-4.07,7l-35-6a9.75,9.75,0,0,0-11.26,11.26l6,35a4.33,4.33,0,0,1-7,4.07l-27.31-22.7a9.74,9.74,0,0,0-15.38,4.12l-12.31,33.31a4.32,4.32,0,0,1-8.12,0l-12.31-33.31a9.74,9.74,0,0,0-15.38-4.12l-27.31,22.7a4.33,4.33,0,0,1-7-4.07l6-35A9.75,9.75,0,0,0,66.14,200.6l-35,6a4.33,4.33,0,0,1-4.07-7l22.7-27.31a9.74,9.74,0,0,0-4.12-15.38L12.34,144.56a4.32,4.32,0,0,1,0-8.12l33.31-12.31a9.74,9.74,0,0,0,4.12-15.38L27.07,81.44a4.33,4.33,0,0,1,4.07-7l35,6A9.75,9.75,0,0,0,77.4,69.14l-6-35a4.33,4.33,0,0,1,7-4.07l27.31,22.7a9.74,9.74,0,0,0,15.38-4.12l12.31-33.31A4.32,4.32,0,0,1,141.56,15.34Z"/></clipPath></defs><g id="Layer_3" data-name="Layer 3"><path class="cls-2" d="M141.56,15.34l12.31,33.31a9.74,9.74,0,0,0,15.38,4.12l27.31-22.7a4.33,4.33,0,0,1,7,4.07l-6,35A9.75,9.75,0,0,0,208.86,80.4l35-6a4.33,4.33,0,0,1,4.07,7l-22.7,27.31a9.74,9.74,0,0,0,4.12,15.38l33.31,12.31a4.32,4.32,0,0,1,0,8.12l-33.31,12.31a9.74,9.74,0,0,0-4.12,15.38l22.7,27.31a4.33,4.33,0,0,1-4.07,7l-35-6a9.75,9.75,0,0,0-11.26,11.26l6,35a4.33,4.33,0,0,1-7,4.07l-27.31-22.7a9.74,9.74,0,0,0-15.38,4.12l-12.31,33.31a4.32,4.32,0,0,1-8.12,0l-12.31-33.31a9.74,9.74,0,0,0-15.38-4.12l-27.31,22.7a4.33,4.33,0,0,1-7-4.07l6-35A9.75,9.75,0,0,0,66.14,200.6l-35,6a4.33,4.33,0,0,1-4.07-7l22.7-27.31a9.74,9.74,0,0,0-4.12-15.38L12.34,144.56a4.32,4.32,0,0,1,0-8.12l33.31-12.31a9.74,9.74,0,0,0,4.12-15.38L27.07,81.44a4.33,4.33,0,0,1,4.07-7l35,6A9.75,9.75,0,0,0,77.4,69.14l-6-35a4.33,4.33,0,0,1,7-4.07l27.31,22.7a9.74,9.74,0,0,0,15.38-4.12l12.31-33.31A4.32,4.32,0,0,1,141.56,15.34Z"/></g><g id="Layer_4" data-name="Layer 4"><g class="cls-3"><path class="cls-4" d="M133.56,16.34l12.31,33.31a9.74,9.74,0,0,0,15.38,4.12l27.31-22.7a4.33,4.33,0,0,1,7,4.07l-6,35A9.75,9.75,0,0,0,200.86,81.4l35-6a4.33,4.33,0,0,1,4.07,7l-22.7,27.31a9.74,9.74,0,0,0,4.12,15.38l33.31,12.31a4.32,4.32,0,0,1,0,8.12l-33.31,12.31a9.74,9.74,0,0,0-4.12,15.38l22.7,27.31a4.33,4.33,0,0,1-4.07,7l-35-6a9.75,9.75,0,0,0-11.26,11.26l6,35a4.33,4.33,0,0,1-7,4.07l-27.31-22.7a9.74,9.74,0,0,0-15.38,4.12l-12.31,33.31a4.32,4.32,0,0,1-8.12,0l-12.31-33.31a9.74,9.74,0,0,0-15.38-4.12l-27.31,22.7a4.33,4.33,0,0,1-7-4.07l6-35A9.75,9.75,0,0,0,58.14,201.6l-35,6a4.33,4.33,0,0,1-4.07-7l22.7-27.31a9.74,9.74,0,0,0-4.12-15.38L4.34,145.56a4.32,4.32,0,0,1,0-8.12l33.31-12.31a9.74,9.74,0,0,0,4.12-15.38L19.07,82.44a4.33,4.33,0,0,1,4.07-7l35,6A9.75,9.75,0,0,0,69.4,70.14l-6-35a4.33,4.33,0,0,1,7-4.07l27.31,22.7a9.74,9.74,0,0,0,15.38-4.12l12.31-33.31A4.32,4.32,0,0,1,133.56,16.34Z"/></g></g><g id="Layer_5" data-name="Layer 5"><path class="cls-5" d="M141.56,15.34l12.31,33.31a9.74,9.74,0,0,0,15.38,4.12l27.31-22.7a4.33,4.33,0,0,1,7,4.07l-6,35A9.75,9.75,0,0,0,208.86,80.4l35-6a4.33,4.33,0,0,1,4.07,7l-22.7,27.31a9.74,9.74,0,0,0,4.12,15.38l33.31,12.31a4.32,4.32,0,0,1,0,8.12l-33.31,12.31a9.74,9.74,0,0,0-4.12,15.38l22.7,27.31a4.33,4.33,0,0,1-4.07,7l-35-6a9.75,9.75,0,0,0-11.26,11.26l6,35a4.33,4.33,0,0,1-7,4.07l-27.31-22.7a9.74,9.74,0,0,0-15.38,4.12l-12.31,33.31a4.32,4.32,0,0,1-8.12,0l-12.31-33.31a9.74,9.74,0,0,0-15.38-4.12l-27.31,22.7a4.33,4.33,0,0,1-7-4.07l6-35A9.75,9.75,0,0,0,66.14,200.6l-35,6a4.33,4.33,0,0,1-4.07-7l22.7-27.31a9.74,9.74,0,0,0-4.12-15.38L12.34,144.56a4.32,4.32,0,0,1,0-8.12l33.31-12.31a9.74,9.74,0,0,0,4.12-15.38L27.07,81.44a4.33,4.33,0,0,1,4.07-7l35,6A9.75,9.75,0,0,0,77.4,69.14l-6-35a4.33,4.33,0,0,1,7-4.07l27.31,22.7a9.74,9.74,0,0,0,15.38-4.12l12.31-33.31A4.32,4.32,0,0,1,141.56,15.34Z"/></g><g id="Layer_2" data-name="Layer 2"><circle class="cls-6" cx="138.5" cy="141.5" r="76.5"/><ellipse class="cls-7" cx="97" cy="151" rx="9" ry="10" transform="translate(-79.01 186.07) rotate(-68.55)"/><ellipse class="cls-7" cx="183" cy="151" rx="10" ry="9" transform="translate(-42.54 77.37) rotate(-21.45)"/><rect x="104" y="121" width="16" height="20" rx="8"/><rect x="157" y="121" width="16" height="20" rx="8"/><path class="cls-8" d="M101,107a21.64,21.64,0,0,1,12-8"/><path class="cls-8" d="M177,107a21.64,21.64,0,0,0-12-8"/><path class="cls-9" d="M118,165c0,1,20.81,4.87,37.4-.57a12.39,12.39,0,0,1-3.4,9.23c0,.34-15.36,4.65-31.68,0C117.6,171.16,117.25,168.19,118,165Z"/><path class="cls-10" d="M115.5,163.5s21,10,42,0a29.4,29.4,0,0,1-7.29,12.08,20.51,20.51,0,0,1-14.71,5.92,17.9,17.9,0,0,1-13-5.35A28.73,28.73,0,0,1,115.5,163.5Z"/></g></svg>