<svg xmlns="http://www.w3.org/2000/svg" xmlns:xlink="http://www.w3.org/1999/xlink" viewBox="0 0 275.52 275.52"><defs><style>.cls-1{fill:none;}.cls-2{clip-path:url(#clip-path);}.cls-3{fill:#f2adad;stroke:#633838;}.cls-3,.cls-4{stroke-linecap:round;stroke-linejoin:round;}.cls-3,.cls-4,.cls-5,.cls-6,.cls-7{stroke-width:5px;}.cls-4{fill:#f77500;stroke:#381b04;}.cls-10,.cls-5{fill:#f9efef;}.cls-5{stroke:#d1d0cf;}.cls-5,.cls-6,.cls-7{stroke-miterlimit:10;}.cls-6{fill:#c1bdbd;stroke:#545352;}.cls-7{fill:#1a7c65;stroke:#06261e;}.cls-8{fill:#eae8e8;}.cls-9{fill:#5ed3b4;}.cls-11{fill:#f2a86b;}</style><clipPath id="clip-path"><rect class="cls-1" x="0.5" y="-0.5" width="276" height="276"/></clipPath></defs><g id="Layer_2" data-name="Layer 2"><g class="cls-2"><path class="cls-3" d="M16,66l46,65c10.11,5.79,8.11,5.54,18,0l52-64a85.12,85.12,0,0,0-9.12-3.9C117,68,114,72,109,78c4-11,3-10,6-18C93.94,54.17,55.38,49.12,16,66Z"/><path class="cls-4" d="M224,4s-38,62-3,90c6.46,3.94,5.76,4.06,14,0C239,88,265,59,224,4Z"/><path class="cls-5" d="M136.3,131.67V105.83a4,4,0,0,1,4-4,83.83,83.83,0,0,1,29.13,0,4,4,0,0,1,4,4v25.84a4,4,0,0,1-4,4H140.34A4,4,0,0,1,136.3,131.67Z"/><path class="cls-6" d="M163.66,221.16H144.34a11.7,11.7,0,0,1-11.7-11.7V141.37c0-4.24-.57-7.67,3.66-7.67,9.13,2.07,26.27,2.07,35.4,0,4.23,0,3.66,3.43,3.66,7.67v68.09A11.7,11.7,0,0,1,163.66,221.16Z"/><path class="cls-6" d="M132.61,165.18c7.89,6.32,35.89,5.32,42.78,0"/><rect class="cls-7" x="206.5" y="230.5" width="42" height="87" rx="7.67"/><line class="cls-3" x1="60.24" y1="99" x2="68.23" y2="129"/><line class="cls-3" x1="82.5" y1="100" x2="75.1" y2="129"/><path class="cls-6" d="M237.5,223.5a52.16,52.16,0,0,1-20,0c-6.92,0-12.33-7.21-12.13-14.13l6.47-112.78A5.76,5.76,0,0,1,217.59,91a24.28,24.28,0,0,0,18.82,0,5.76,5.76,0,0,1,5.75,5.59l7.47,112.78C249.83,216.29,244.42,223.5,237.5,223.5Z"/><path class="cls-8" d="M231.1,103.63l5.76,105A3.47,3.47,0,0,0,240.7,212h0a3.47,3.47,0,0,0,3.1-3.68l-7.64-104.94a2.53,2.53,0,0,0-2.52-2.37h0A2.54,2.54,0,0,0,231.1,103.63Z"/><path class="cls-7" d="M230,234.56c-4.83,0-14.67-.67-18.88-2a5.29,5.29,0,0,1,3.2-10.09c6.09,1.93,19.59,2,25.67.17a5.29,5.29,0,0,1,3,10.13A45.77,45.77,0,0,1,230,234.56Z"/><rect class="cls-9" x="239" y="240" width="5" height="72" rx="2.5"/><rect class="cls-10" x="162.5" y="140.5" width="6" height="22" rx="3"/><rect class="cls-10" x="163" y="174" width="6" height="41" rx="3"/><path class="cls-7" d="M168.82,323.81H139.18a7.68,7.68,0,0,1-7.67-7.67V225.72c0-4.23.44-7.66,4.67-7.66,9.88,2.88,25.76,2.88,35.64,0,4.23,0,4.67,3.43,4.67,7.66v90.42A7.68,7.68,0,0,1,168.82,323.81Z"/><rect class="cls-9" x="162.5" y="228.5" width="6" height="81" rx="3"/><path class="cls-11" d="M228,25.52c1.95,11.23,5,32.7,4.51,54.41a1.53,1.53,0,0,0,1.53,1.57h3.52a1.54,1.54,0,0,0,1.53-1.41c.49-6.68,1.92-35.54-8.22-55.53A1.53,1.53,0,0,0,228,25.52Z"/><rect class="cls-7" x="52.5" y="234.5" width="37" height="87" rx="7.67"/><path class="cls-6" d="M78.5,227.5c-6.24,1.29-8.76,1.29-15,0-6.92,0-12.33-7.21-12.13-14.13l4.47-78.78A5.76,5.76,0,0,1,61.59,129a58.19,58.19,0,0,0,18.82,0,5.76,5.76,0,0,1,5.75,5.59l4.47,78.78C90.83,220.29,85.42,227.5,78.5,227.5Z"/><path class="cls-8" d="M75.1,141.63l2.76,71A3.47,3.47,0,0,0,81.7,216h0a3.47,3.47,0,0,0,3.1-3.68l-4.64-70.94A2.53,2.53,0,0,0,77.64,139h0A2.54,2.54,0,0,0,75.1,141.63Z"/><path class="cls-7" d="M71,238.56a46.9,46.9,0,0,1-13.88-2,5.29,5.29,0,0,1,3.2-10.09,38.59,38.59,0,0,0,20.67.17,5.29,5.29,0,0,1,3,10.13A45.77,45.77,0,0,1,71,238.56Z"/><rect class="cls-9" x="80" y="244" width="5" height="72" rx="2.5"/></g></g></svg>