<svg xmlns="http://www.w3.org/2000/svg" viewBox="0 0 275.52 275.52"><defs><style>.cls-1{fill:#e3e3e3;}.cls-2{fill:#a6a6a6;}.cls-3{fill:#c66f66;}.cls-4{fill:#a55c55;}.cls-5{fill:#fc0;}.cls-6{fill:#7c4540;}.cls-11,.cls-16,.cls-21,.cls-26,.cls-7{fill:none;stroke-linecap:round;stroke-linejoin:round;}.cls-7{stroke:#492926;}.cls-8{fill:#90be99;}.cls-9{fill:#57725c;}.cls-10{fill:#729679;}.cls-11{stroke:#2e3d31;}.cls-12{fill:#ffcb02;}.cls-13{fill:#8ec5ee;}.cls-14{fill:#e3e2e4;}.cls-15{fill:#7babcf;}.cls-16{stroke:#404030;}.cls-17{fill:#9e6a98;}.cls-18{fill:#c194c6;}.cls-19{fill:#8ca6e0;}.cls-20{fill:#6577a1;}.cls-21{stroke:#2d3648;}.cls-22{fill:#93524c;}.cls-23{fill:#c6b50f;}.cls-24{fill:#aaaa7f;}.cls-25{fill:#d4d5c0;}.cls-26{stroke:#000;stroke-width:5px;}</style></defs><g id="Layer_7" data-name="Layer 7"><g id="Layer0_0_FILL" data-name="Layer0 0 FILL"><path class="cls-1" d="M190.81,20.91a91.18,91.18,0,0,0,1.31,17.45L236.26,70a37.23,37.23,0,0,1-.94-9.64c0-.69.05-1.32.09-1.88L190.88,16.78C190.84,18.05,190.81,19.43,190.81,20.91Z"/><path class="cls-2" d="M191.42,11a49.71,49.71,0,0,0-.54,5.78l44.53,41.68a7.7,7.7,0,0,1,.85-3.56Z"/><path class="cls-3" d="M188.78,14.8a29.39,29.39,0,0,1,1.46-8.6L161.66,13q-1.36,1.22-1.46,12.22a112,112,0,0,0,1.46,20.15l28.64-5.32A38.3,38.3,0,0,1,189,31.8c-.26-3.35-.38-7-.36-10.89q0-3.37.15-6.11M35.3,43.23,19,47.12Q17,49.28,16.6,58.06c-.32,6.38.47,11,2.37,13.92l15.78-3A41.18,41.18,0,0,1,32.92,54q.38-7.4,2.38-10.73M158.41,14.41a2.12,2.12,0,0,1,.4-.7l-.4.09L37.64,42.65q-2,3.38-2.4,10.82a40.92,40.92,0,0,0,1.85,15.14L158.84,45.9a112.34,112.34,0,0,1-1.43-20.06Q157.47,16.84,158.41,14.41Z"/><path class="cls-4" d="M190.24,6.2a29.39,29.39,0,0,0-1.46,8.6q-.15,2.73-.15,6.11c0,3.92.1,7.54.36,10.89a38.3,38.3,0,0,0,1.31,8.26l47.12,32.32.42-1.25L236.26,70,192.12,38.36a91.18,91.18,0,0,1-1.31-17.45c0-1.48,0-2.86.07-4.13a49.71,49.71,0,0,1,.54-5.78l44.84,43.9,1,.94c.93-.2,1.29-1,1.1-2.28Z"/><path class="cls-5" d="M37.64,42.65l-2.34.58q-2,3.35-2.38,10.73A41.18,41.18,0,0,0,34.75,69l2.34-.42a40.92,40.92,0,0,1-1.85-15.14q.36-7.44,2.4-10.82M158.81,13.71a2.12,2.12,0,0,0-.4.7q-.94,2.43-1,11.43a112.34,112.34,0,0,0,1.43,20.06l2.82-.52a112,112,0,0,1-1.46-20.15q.09-11,1.46-12.22Z"/><path class="cls-6" d="M161.66,45.38l-2.82.52L37.09,68.61,34.75,69,19,72l13.86,5.54,204.59-5.14L190.3,40.06Z"/></g><path id="Layer0_0_1_STROKES" data-name="Layer0 0 1 STROKES" class="cls-7" d="M190.23,6.21a29.41,29.41,0,0,0-1.44,8.61q-.16,2.71-.17,6.1,0,5.86.37,10.88a39.21,39.21,0,0,0,1.3,8.27l47.12,32.31.43-1.24L236.26,70,192.12,38.37a91.25,91.25,0,0,1-1.31-17.45c0-1.49,0-2.87.08-4.14a47.44,47.44,0,0,1,.53-5.77L236.26,54.9l1,1c.92-.21,1.28-1,1.08-2.29Zm0,0L161.66,13m0,32.37,28.63-5.33m-31.44,5.85,2.81-.52M158.8,13.71l2.86-.68m-124,29.64L158.41,13.8l.39-.09M35.29,43.23l2.34-.56m-.54,25.94L158.85,45.92M16.6,58.06Q16.1,67.65,19,72m0-24.87Q17,49.28,16.6,58.06M19,47.12l16.32-3.89m-.53,25.82,2.33-.44M19,72l15.79-2.94M19,72l13.86,5.53,204.58-5.14m-2-13.92c0,.57-.07,1.2-.09,1.88a37.19,37.19,0,0,0,.95,9.64m0-15.08a7.71,7.71,0,0,0-.86,3.56"/><g id="Layer0_1_FILL" data-name="Layer0 1 FILL"><path class="cls-1" d="M245.14,97.43q-1.27-3.72-1.31-12.31c0-1.92,0-3.55.09-4.9L187,49.88c0,2.26.05,5,.16,8.39q.45,10.93,1.27,13.77Z"/><path class="cls-8" d="M38.64,82.23q-.39,9.87,1.82,14.68L154.34,79.16q-2.73-4.29-2.53-18.06.24-13.27,2.4-16.87L41.07,69.89q-2,2.88-2.43,12.34m0-11.8L26.94,73.11q-4.29,1.44-4.69,11.82Q22,96,25.45,99.25l12.79-2a43.63,43.63,0,0,1-1.67-15q.36-8.66,2.1-11.8M183.55,47q0-9.42,1.88-9.88L158,43.38q-2.25,3.49-2.49,17-.21,14,2.62,18.21L186,74.23Q183.9,73.06,183.55,47Z"/><path class="cls-9" d="M38.24,97.24l-12.79,2a4.68,4.68,0,0,0,1.55,1l181.42,5.08,39.51-4.89L186,74.23l-27.87,4.35-3.74.58.09.15-.09-.15L40.46,96.91Z"/><path class="cls-5" d="M41.07,69.89l-2.4.54q-1.74,3.15-2.1,11.8a43.63,43.63,0,0,0,1.67,15l2.22-.33q-2.22-4.8-1.82-14.68.39-9.45,2.43-12.34M158,43.38l-3.74.85q-2.16,3.59-2.4,16.87-.21,13.77,2.53,18.06l3.74-.58q-2.84-4.2-2.62-18.21Q155.7,46.87,158,43.38Z"/><path class="cls-10" d="M187,49.88c0-4,.26-6.26.67-6.74l57,32.64,1.95,1.13.91-1.49L185.43,37.15q-1.83.47-1.88,9.88.34,26,2.4,27.2l62,26.21a1.4,1.4,0,0,0,0-1.77l-2.79-1.24L188.41,72q-.82-2.83-1.27-13.77C187,54.93,187,52.14,187,49.88Z"/><path class="cls-2" d="M187.65,43.14c-.41.48-.64,2.73-.67,6.74l56.94,30.34c.12-2.47.36-4,.73-4.44Z"/></g><path id="Layer0_1_1_STROKES" data-name="Layer0 1 1 STROKES" class="cls-11" d="M154.23,44.23l3.72-.85,27.48-6.23,62.09,38.27-.93,1.49-1.93-1.11c-.38.48-.62,2-.74,4.44-.07,1.34-.1,3-.1,4.88q0,8.59,1.31,12.31l2.8,1.25a1.44,1.44,0,0,1,0,1.78l-39.52,4.87L27,100.26a4.93,4.93,0,0,1-1.55-1Q22,96,22.25,84.94q.41-10.39,4.68-11.83l11.74-2.66,2.4-.55Zm3.84,34.35-3.74.58m33.32-36,57,32.65m-57-32.65q-.63.72-.65,6.75m-1.57-12.75q-1.85.47-1.89,9.88.36,26,2.42,27.21l62,26.22M40.46,96.91l-2.2.35-12.82,2M187,49.9q0,3.38.13,8.38.45,10.92,1.28,13.77l56.72,25.38m-90.8-18.27s.06.11.09.15M186,74.24l-27.89,4.34m-3.74.58L40.46,96.91"/><g id="Layer1_0_FILL" data-name="Layer1 0 FILL"><path class="cls-12" d="M174.14,225.22l-3.94-.4q-2.69,3.56-2.4,19.85.25,11.87,1.5,16.71a4.17,4.17,0,0,1,.2.75l3.79.65q-1.47-4.54-1.7-17.51-.28-16.68,2.55-20.05M46.41,212.15,44,211.9q-2.53,2.85-2.79,13.67,0,11.77,1.5,14.81l2.44.4q-1.61-2.82-1.54-14.91Q43.81,215,46.41,212.15Z"/><path class="cls-13" d="M200.37,239.18q.51-8.81,2.5-11l-28.73-2.94q-2.83,3.36-2.55,20.05.24,13,1.7,17.51L203,267.86q-2.39-2.53-2.7-19.55-.09-5.2.1-9.13M43.57,225.87q-.06,12.09,1.54,14.91L169.5,262.13a4.17,4.17,0,0,0-.2-.75q-1.25-4.85-1.5-16.71-.28-16.29,2.4-19.85L46.41,212.15q-2.59,2.86-2.84,13.72m.39-14-16-1.59q-2.49,2-2.89,13.76Q25,235.17,28,237.84l14.67,2.54q-1.55-3-1.5-14.81Q41.43,214.76,44,211.9Z"/><path class="cls-2" d="M207.35,230.66q-1.5,1.53-2,6.73l55.36-19.8a32.57,32.57,0,0,1,.85-4.84Z"/><path class="cls-14" d="M261.62,235a71.91,71.91,0,0,1-.95-17.41l-55.36,19.8a84.74,84.74,0,0,0-.2,10q.3,11.43,1.7,14.92Z"/><path class="cls-15" d="M261.52,212.75l2.39-.8.25-2.74-61.24,18.95h0q-2,2.22-2.5,11-.19,3.93-.1,9.13.31,17,2.7,19.55l.25.05,58.4-29.52,2.14-1.1V234L261.62,235l-54.81,27.28q-1.4-3.5-1.7-14.92a84.74,84.74,0,0,1,.2-10q.54-5.2,2-6.73l54.17-17.91M44,211.9l2.45.25L170.2,224.82l3.94.4,28.73,2.94h0l61.24-18.95-102.89-4.59L28,210.31Z"/></g><path id="Layer1_0_1_STROKES" data-name="Layer1 0 1 STROKES" class="cls-16" d="M44,211.93l2.42.25L170.2,224.85l3.94.39,28.75,2.95h.05l61.22-19-102.89-4.59L28,210.31Zm-1.3,28.45,2.45.43M28,210.31q-2.49,2-2.89,13.76Q25,235.17,28,237.86l14.69,2.52m218.83-27.63,2.39-.8.25-2.74m-3.46,8.38a70.89,70.89,0,0,0,.92,17.43l2.14-1.07v3.36l-2.14,1.08-58.4,29.52-.23-.05-29.67-5.08-3.8-.65L45.14,240.81m160.19-3.4q.53-5.22,2-6.75l54.17-17.91a30.28,30.28,0,0,0-.82,4.84m-55.37,19.82a81.6,81.6,0,0,0-.22,10q.3,11.43,1.7,14.92L261.62,235M203,267.86q-2.4-2.53-2.72-19.52-.09-5.24.13-9.16.47-8.81,2.49-11"/><g id="Layer1_1_FILL" data-name="Layer1 1 FILL"><path class="cls-2" d="M208.8,192.9a30,30,0,0,0-.9,6.24l45.74-7.93c.13-1.71.33-3.41.6-5.09Z"/><path class="cls-14" d="M207.9,199.14c-.13,2.1-.18,4.57-.15,7.43q.15,9.77.9,13.21L254.24,205a64.27,64.27,0,0,1-.6-13.81Z"/><path class="cls-17" d="M207.75,206.57c0-2.86,0-5.33.15-7.43a30,30,0,0,1,.9-6.24l45.44-6.78,6-.9a2.44,2.44,0,0,0-.1-2.59l-55.06,7.08q-1.84,3.39-1.6,18.35t2,17.06l53-18.45a3.57,3.57,0,0,0,0-3L254.24,205l-45.59,14.76q-.75-3.43-.9-13.21M44,181.68l3,.15,124.93,6.23,3.25.15h.44l29.48,1.5,55.06-7.08L60.87,175.15l-33.21,5.73Z"/><path class="cls-18" d="M175.58,188.21q-1.58,3.93-1.34,17.86.21,13,1.59,16.26l29.68,2.79q-1.8-2.19-2-17.06t1.6-18.35l-29.48-1.5M44.71,194.15q-.65,9.63,1.3,16.21L171.84,222H172q-1.31-3.6-1.49-15.91-.25-13.92,1.34-17.81a.73.73,0,0,0,0-.2L47,181.83q-1.65,4.14-2.25,12.32m-19.9-.45q-.6,9.68,2.35,14.91l15.76,1.45a47.61,47.61,0,0,1-1.2-15.91q.6-8.19,2.29-12.47l-16.35-.8Q25.31,185,24.81,193.7Z"/><path class="cls-12" d="M171.89,188.06a.73.73,0,0,1,0,.2q-1.59,3.9-1.34,17.81.18,12.31,1.49,15.91l3.2.3.64.05q-1.38-3.29-1.59-16.26-.24-13.94,1.34-17.86h-.44l-3.25-.15M47,181.83l-3-.15q-1.69,4.29-2.29,12.47a47.61,47.61,0,0,0,1.2,15.91l3.09.3q-1.95-6.59-1.3-16.21Q45.31,186,47,181.83Z"/></g><path id="Layer1_1_1_STROKES" data-name="Layer1 1 1 STROKES" class="cls-16" d="M27.66,180.88q-2.36,4.1-2.85,12.82-.6,9.68,2.35,14.91l15.78,1.47M44,181.7l-16.35-.82,33.21-5.73,199.25,7.48a2.44,2.44,0,0,1,.1,2.59l-6,.9c-.27,1.68-.46,3.38-.58,5.09a63.33,63.33,0,0,0,.58,13.84l4.24-1.38a3.61,3.61,0,0,1,0,3l-53,18.43-29.65-2.77-.65,0L172,222h-.12L46,210.36l-3.07-.28M44,181.7l3,.15,124.94,6.21,3.24.15.42,0,29.48,1.47,55.06-7.08M207.9,199.14c-.13,2.1-.18,4.57-.15,7.43q.15,9.77.9,13.21l45.59-14.73m0-18.93L208.8,192.9a30,30,0,0,0-.9,6.24m-2.84-9.43q-1.84,3.39-1.6,18.35t2,17.06"/><path d="M51.66,203.14v-.54c.82.07,1.23-.21,1.23-.85v-8.39a1.29,1.29,0,0,0-1.39-1.43v-.53l4.09.23v.54c-.87,0-1.3.37-1.3,1.28v8.41c0,.5.31.78.92.83l.66.05a4.72,4.72,0,0,0,1.14,0,2.7,2.7,0,0,0,.83-.26c.42-.26.8-1.08,1.14-2.48l.39.1-.43,3.67Z"/><path d="M60,203.84v-.55c.92.08,1.39-.3,1.39-1.13V194.1c0-1.06-.49-1.62-1.45-1.68v-.54l4.25.24v.55c-.9,0-1.35.45-1.35,1.52v8.09c0,.83.47,1.29,1.41,1.37v.54Z"/><path d="M66.87,204.42v-.55c1.07.09,1.61-.43,1.61-1.56v-8.47c0-.45-.25-.69-.74-.72a1.82,1.82,0,0,0-1.6.68,5.12,5.12,0,0,0-.91,2.29l-.46-.18.4-3.86a5.74,5.74,0,0,0,.65.13,4.16,4.16,0,0,0,.58.07l5.83.34h.67l.69-.05v3.88l-.42.05c-.12-2-.94-3-2.44-3.12-.5,0-.75.17-.75.58v8.5a1.63,1.63,0,0,0,1.64,1.84v.55Z"/><path d="M74.58,205.07v-.56c1,.08,1.43-.29,1.43-1.1v-8.47a1.46,1.46,0,0,0-1.54-1.66v-.56l8.3.47.13,3.56-.5,0a5.66,5.66,0,0,0-.43-1.62,2.46,2.46,0,0,0-.7-.88,2,2,0,0,0-.93-.38c-.35,0-.73-.09-1.14-.11l-.45,0c-.79-.05-1.19.21-1.19.77v3.36c0,.37.12.57.38.59l.53,0a6.17,6.17,0,0,0,.74,0,1.26,1.26,0,0,0,.6-.2,1.32,1.32,0,0,0,.42-.58,3.62,3.62,0,0,0,.24-1.09l.58,0v4.89l-.58,0a5.86,5.86,0,0,0-.2-1.12,1.51,1.51,0,0,0-.36-.65,1.3,1.3,0,0,0-.59-.32,5.29,5.29,0,0,0-.85-.13h-.19q-.72-.06-.72.57v3.58q0,1.07,1.26,1.17l.49,0a5.81,5.81,0,0,0,1.61-.05,2,2,0,0,0,1-.48,2.6,2.6,0,0,0,.61-.93q.24-.57.48-1.35l.43.19L83,205.78Z"/><path d="M95.15,205.11a1.84,1.84,0,0,1-.1.56,1.93,1.93,0,0,1-.28.6,1.75,1.75,0,0,1-.48.46.91.91,0,0,1-.63.16,2.52,2.52,0,0,1-1.51-.52,2.63,2.63,0,0,1-.71-1.34c-.14-.5-.27-1-.4-1.61a12.28,12.28,0,0,0-.48-1.58,4.29,4.29,0,0,0-.67-1.22,1.32,1.32,0,0,0-1-.55l-.49,0c-.3,0-.47,0-.51.17v4.16c0,.83.5,1.29,1.51,1.38v.57l-4.61-.39v-.57c1,.08,1.43-.29,1.43-1.12v-9c0-.82-.52-1.26-1.54-1.32v-.59l2,.12.91,0,.74,0h.75l1,0a3.61,3.61,0,0,1,1.34.32,3.46,3.46,0,0,1,1.83,1.78,3.22,3.22,0,0,1,.26,1.28,3.07,3.07,0,0,1-.21,1.18,2.47,2.47,0,0,1-.62.87,3.48,3.48,0,0,1-.92.6,5.73,5.73,0,0,1-1.19.34V200a4.67,4.67,0,0,1,1.33,1.2,4.27,4.27,0,0,1,.71,1.34c.07.26.14.58.23,1s.2.72.31,1a4.05,4.05,0,0,0,.42.86.73.73,0,0,0,.57.38c.27,0,.46-.25.59-.82Zm-6-5.77a5.11,5.11,0,0,0,1,0,1.72,1.72,0,0,0,.83-.29,1.69,1.69,0,0,0,.59-.73,3.32,3.32,0,0,0,.22-1.36,3,3,0,0,0-.22-1.23,2.19,2.19,0,0,0-.59-.79,2.44,2.44,0,0,0-.78-.45,3.26,3.26,0,0,0-.85-.16l-.79,0c-.42,0-.62.32-.62,1V199a.37.37,0,0,0,.39.31Z"/><path d="M101.63,207.35v-.59l.51,0,.49-.06a1.46,1.46,0,0,0,.37-.12.23.23,0,0,0,.15-.2s0-.13,0-.23a1.3,1.3,0,0,0-.09-.37l-.79-2.49c-.13-.35-.48-.55-1.06-.6l-2.57-.19c-.44,0-.7.12-.79.45l-.58,2a1.29,1.29,0,0,0-.07.5c0,.6.5.94,1.51,1v.68l-3.84-.32v-.68a1.16,1.16,0,0,0,.84-.32,2.51,2.51,0,0,0,.59-1l4.11-10.91.52.26,4.15,12a2.09,2.09,0,0,0,.38.55,1,1,0,0,0,.3.13l.71.27v.6Zm-1.51-10.68-1.51,4a1.9,1.9,0,0,0-.19.65c0,.2.21.31.63.34l2.18.16c.35,0,.52,0,.52-.2a3.49,3.49,0,0,0-.19-.66Z"/><path d="M107.69,207.86v-.59c1.27.1,1.91-.46,1.91-1.69v-9.24c0-.5-.29-.76-.88-.8a2.25,2.25,0,0,0-1.9.74,5.25,5.25,0,0,0-1.09,2.49l-.54-.2.47-4.2.77.14a6.17,6.17,0,0,0,.71.08l6.94.4a6.94,6.94,0,0,0,.79,0c.27,0,.54,0,.82-.05v4.24l-.49,0q-.23-3.25-2.91-3.42c-.6,0-.9.18-.9.64v9.27a1.85,1.85,0,0,0,2,2v.6Z"/><path d="M127.47,198.21c0-1.22-.66-1.87-2-1.94v-.63l4.48.26v.63c-1.07-.06-1.61.52-1.61,1.74v6.34a10.88,10.88,0,0,1-.19,2.15,3.33,3.33,0,0,1-.78,1.61,3.4,3.4,0,0,1-1.67.94,8.26,8.26,0,0,1-2.84.15,5.7,5.7,0,0,1-1.95-.5,4.2,4.2,0,0,1-1.4-1,4.3,4.3,0,0,1-.86-1.48,5.31,5.31,0,0,1-.29-1.8v-7.3c0-1-.59-1.53-1.76-1.59v-.61l5.39.31v.61c-1.19-.07-1.78.4-1.78,1.39v6.8c0,.46,0,.94.06,1.43a3.38,3.38,0,0,0,.41,1.34,2.73,2.73,0,0,0,1,1,4.57,4.57,0,0,0,2,.54,3.84,3.84,0,0,0,1.95-.24,2.67,2.67,0,0,0,1.13-.91,3.61,3.61,0,0,0,.51-1.3,8.17,8.17,0,0,0,.12-1.36Z"/><path d="M143.74,209a1.92,1.92,0,0,1-.12.61,2.07,2.07,0,0,1-.34.66,2.2,2.2,0,0,1-.58.51,1.23,1.23,0,0,1-.76.17,3.32,3.32,0,0,1-1.83-.59,2.89,2.89,0,0,1-.87-1.49c-.16-.55-.33-1.14-.49-1.77a12.68,12.68,0,0,0-.57-1.74,4.94,4.94,0,0,0-.81-1.35,1.74,1.74,0,0,0-1.2-.61l-.6,0c-.36,0-.57,0-.62.19v4.57c0,.92.61,1.42,1.83,1.53v.63l-5.58-.47v-.63c1.16.1,1.73-.31,1.73-1.22v-9.93c0-.9-.62-1.38-1.86-1.46V196l2.46.15,1.1,0,.89,0,.92,0,1.19.06a5,5,0,0,1,1.63.36,4.19,4.19,0,0,1,1.32.81,3.71,3.71,0,0,1,.89,1.16,3.24,3.24,0,0,1,.32,1.41,2.93,2.93,0,0,1-.26,1.3,2.81,2.81,0,0,1-.74,1,4,4,0,0,1-1.13.64,6.64,6.64,0,0,1-1.43.37v.07a5.68,5.68,0,0,1,1.6,1.33,4.44,4.44,0,0,1,.86,1.48c.09.29.18.64.29,1a10.5,10.5,0,0,0,.38,1.16,4.23,4.23,0,0,0,.49.95,1,1,0,0,0,.7.43c.33,0,.57-.28.72-.91Zm-7.28-6.4a7.61,7.61,0,0,0,1.17,0,2.23,2.23,0,0,0,1-.32,1.82,1.82,0,0,0,.72-.8,3.36,3.36,0,0,0,.27-1.49,3.08,3.08,0,0,0-.27-1.36,2.49,2.49,0,0,0-.71-.88,3,3,0,0,0-.95-.49,4.24,4.24,0,0,0-1-.19l-1-.06c-.51,0-.76.35-.76,1.14v4a.47.47,0,0,0,.48.35Z"/><path d="M144.58,211v-.65c1.27.11,1.9-.31,1.9-1.24v-9.78c0-1.21-.68-1.85-2-1.93v-.65l11.06.64.17,4.11-.66,0a5.82,5.82,0,0,0-.58-1.87,2.85,2.85,0,0,0-.93-1,3.17,3.17,0,0,0-1.25-.45c-.46-.06-1-.11-1.52-.14l-.59,0c-1.06-.06-1.59.23-1.59.88v3.87c0,.44.16.67.5.69l.71,0a8.1,8.1,0,0,0,1,0,1.7,1.7,0,0,0,.81-.23,1.47,1.47,0,0,0,.57-.65,3.69,3.69,0,0,0,.3-1.26l.79.06v5.65l-.79-.06a5.87,5.87,0,0,0-.25-1.3,1.69,1.69,0,0,0-.49-.75,1.78,1.78,0,0,0-.78-.38,7.43,7.43,0,0,0-1.14-.16l-.25,0c-.64,0-1,.17-1,.65v4.13c0,.82.56,1.28,1.68,1.37l.65.06a9.26,9.26,0,0,0,2.15,0,2.74,2.74,0,0,0,2.16-1.61c.2-.44.42-1,.63-1.55l.58.22-.58,4.3Z"/><path d="M62.79,236.61l-.86-1a2.38,2.38,0,0,1-1,.51,2.68,2.68,0,0,1-1.16.07,3.2,3.2,0,0,1-1.49-.64,5,5,0,0,1-1.15-1.3,6.54,6.54,0,0,1-.74-1.79,7.93,7.93,0,0,1-.27-2.09,7.65,7.65,0,0,1,.27-2.06,5.65,5.65,0,0,1,.77-1.7,3.64,3.64,0,0,1,1.2-1.12,2.52,2.52,0,0,1,2.52.07,8.06,8.06,0,0,1,.92.68,1.38,1.38,0,0,1,.87-.57,13.62,13.62,0,0,1,.41,3.71l-.41-.06a6.07,6.07,0,0,0-.94-2.4,2.37,2.37,0,0,0-1.69-1.08,1.7,1.7,0,0,0-1.22.26,2.52,2.52,0,0,0-.8,1,5.05,5.05,0,0,0-.44,1.48,11.2,11.2,0,0,0-.14,1.76,11.5,11.5,0,0,0,.16,1.9,6.56,6.56,0,0,0,.49,1.62,3.53,3.53,0,0,0,.81,1.18,2.07,2.07,0,0,0,1.14.57,2,2,0,0,0,.73,0,1.33,1.33,0,0,0,.6-.31,1.46,1.46,0,0,0,.42-.63,3,3,0,0,0,.15-1c0-1.11-.41-1.72-1.22-1.84v-.47l3.44.48v.48c-.72-.1-1.08.26-1.08,1.07v3.3Z"/><path d="M64.86,236.76v-.49c.75.12,1.12-.18,1.12-.88v-7.34c0-.91-.4-1.41-1.21-1.51v-.49l6.54.8.11,3.09H71a5.18,5.18,0,0,0-.34-1.42,2.14,2.14,0,0,0-.55-.8,1.69,1.69,0,0,0-.73-.37q-.42-.09-.9-.15l-.35,0c-.63-.08-1,.12-1,.61v2.91c0,.32.1.5.3.52l.42.06a4,4,0,0,0,.58,0,.81.81,0,0,0,.48-.15,1,1,0,0,0,.33-.47,3.67,3.67,0,0,0,.19-.94l.46.06v4.25L69.5,234a7.1,7.1,0,0,0-.15-1,1.57,1.57,0,0,0-.29-.58,1.21,1.21,0,0,0-.46-.31,4.38,4.38,0,0,0-.68-.15l-.15,0c-.38,0-.57.1-.57.46v3.1a1,1,0,0,0,1,1.08l.38.06a4,4,0,0,0,1.27,0,1.36,1.36,0,0,0,.79-.37,1.93,1.93,0,0,0,.49-.77c.12-.32.25-.7.37-1.15l.35.19-.35,3.2Z"/><path d="M77,238.88a3.9,3.9,0,0,1-1.71-.71,5.16,5.16,0,0,1-1.34-1.41,7.32,7.32,0,0,1-.88-1.94,8.26,8.26,0,0,1-.31-2.25,7.17,7.17,0,0,1,.3-2.08,5.26,5.26,0,0,1,.84-1.73,3.78,3.78,0,0,1,1.34-1.12,3,3,0,0,1,1.76-.28,4.16,4.16,0,0,1,1.77.64,5,5,0,0,1,1.41,1.37,7,7,0,0,1,.94,1.94,8.05,8.05,0,0,1,.33,2.33,7.15,7.15,0,0,1-.32,2.11,5.53,5.53,0,0,1-.91,1.76,3.76,3.76,0,0,1-1.4,1.14A3.09,3.09,0,0,1,77,238.88Zm.1-.64a1.84,1.84,0,0,0,1.27-.2,2.37,2.37,0,0,0,.87-.95,5.13,5.13,0,0,0,.52-1.55,11,11,0,0,0,.16-2,11.67,11.67,0,0,0-.16-2,6.94,6.94,0,0,0-.53-1.74,3.89,3.89,0,0,0-.93-1.29,2.5,2.5,0,0,0-1.39-.62,1.8,1.8,0,0,0-1.26.26,2.56,2.56,0,0,0-.84,1,5.45,5.45,0,0,0-.45,1.55,12.56,12.56,0,0,0-.13,1.89,12.38,12.38,0,0,0,.16,2.06,7.16,7.16,0,0,0,.52,1.71,3.71,3.71,0,0,0,.9,1.24A2.44,2.44,0,0,0,77.08,238.24Z"/><path d="M90.47,240.91l-1-1.08a3,3,0,0,1-1.14.54,3.45,3.45,0,0,1-1.36.06,4,4,0,0,1-1.75-.72,5.28,5.28,0,0,1-1.35-1.43,7.32,7.32,0,0,1-.88-1.94,8.46,8.46,0,0,1-.31-2.27,7.71,7.71,0,0,1,.32-2.23,5.6,5.6,0,0,1,.91-1.83,4.1,4.1,0,0,1,1.4-1.2,3.15,3.15,0,0,1,1.81-.29,2.93,2.93,0,0,1,1.15.4,9.12,9.12,0,0,1,1.09.74,1.61,1.61,0,0,1,1-.61,13.67,13.67,0,0,1,.48,4l-.48-.07a6.46,6.46,0,0,0-1.1-2.61,2.86,2.86,0,0,0-2-1.19,2.14,2.14,0,0,0-1.43.26,2.7,2.7,0,0,0-1,1.05,5.37,5.37,0,0,0-.52,1.6,11.83,11.83,0,0,0-.15,1.91,11.53,11.53,0,0,0,.18,2.06,6.42,6.42,0,0,0,.57,1.75,4.42,4.42,0,0,0,1,1.3,2.56,2.56,0,0,0,1.35.63,2.25,2.25,0,0,0,.86,0,1.57,1.57,0,0,0,1.19-1,2.85,2.85,0,0,0,.18-1.09q0-1.8-1.44-2v-.52l4,.57v.52c-.85-.12-1.27.27-1.27,1.15V241Z"/><path d="M102.12,241a1.68,1.68,0,0,1-.08.51,1.59,1.59,0,0,1-.26.54,1.46,1.46,0,0,1-.42.4.82.82,0,0,1-.56.11,2.42,2.42,0,0,1-1.35-.58,2.66,2.66,0,0,1-.64-1.28q-.18-.71-.36-1.5a13.27,13.27,0,0,0-.42-1.49,4.36,4.36,0,0,0-.6-1.16,1.26,1.26,0,0,0-.88-.56l-.44-.06c-.26,0-.42,0-.45.13v3.83c0,.76.44,1.22,1.34,1.35v.53l-4.1-.63v-.53c.85.13,1.27-.18,1.27-.94v-8.31c0-.75-.46-1.18-1.37-1.3v-.54l1.81.22.81.09.65.05.68.06c.24,0,.53.05.87.1a3.29,3.29,0,0,1,1.2.37,3.44,3.44,0,0,1,1,.73,3.57,3.57,0,0,1,.65,1,3,3,0,0,1,.24,1.19,2.8,2.8,0,0,1-.19,1.09,2.13,2.13,0,0,1-.55.76,2.56,2.56,0,0,1-.83.5,4.25,4.25,0,0,1-1.05.24v.06a4.76,4.76,0,0,1,1.18,1.19,4.4,4.4,0,0,1,.63,1.27c.06.25.13.54.21.89s.17.67.28,1a3.8,3.8,0,0,0,.37.81.74.74,0,0,0,.51.39c.24,0,.42-.2.53-.72Zm-5.35-5.67a5,5,0,0,0,.85.05,1.5,1.5,0,0,0,.74-.22,1.42,1.42,0,0,0,.53-.64,3.14,3.14,0,0,0,.2-1.24,3,3,0,0,0-.2-1.15,2.27,2.27,0,0,0-.52-.77,2.39,2.39,0,0,0-.7-.45,3.22,3.22,0,0,0-.75-.2l-.71-.09c-.37,0-.55.27-.55.92v3.37a.37.37,0,0,0,.35.32Z"/><path d="M107.94,243.41v-.54h.46a3,3,0,0,0,.44,0,1.31,1.31,0,0,0,.33-.09.19.19,0,0,0,.13-.17,1.06,1.06,0,0,1,0-.21,1.7,1.7,0,0,0-.09-.36l-.7-2.35a1.06,1.06,0,0,0-1-.61l-2.31-.33c-.39-.06-.62.07-.7.37l-.52,1.79a1.08,1.08,0,0,0-.07.46c0,.55.45.89,1.35,1V243l-3.43-.53v-.63a1,1,0,0,0,.75-.24,2.12,2.12,0,0,0,.53-.86l3.69-9.83.46.27L111,242.56a2.25,2.25,0,0,0,.35.54,1.45,1.45,0,0,0,.26.14c.16.06.37.16.65.29v.55Zm-1.36-10-1.36,3.63a1.88,1.88,0,0,0-.17.59c0,.18.19.3.57.35l2,.28c.31,0,.47,0,.47-.15a4.39,4.39,0,0,0-.17-.63Z"/><path d="M112.94,244.19v-.56q1.47.23,1.47-1.11v-8.73c0-.74-.51-1.17-1.53-1.3v-.57l2.7.33.84.09.54,0,.47,0,.65.06c2.48.31,3.73,1.68,3.73,4.13a3.73,3.73,0,0,1-.22,1.32,2.52,2.52,0,0,1-.7,1,2.71,2.71,0,0,1-1.18.57,4.7,4.7,0,0,1-1.69,0c-.35,0-.7-.12-1-.2a6.38,6.38,0,0,1-1-.29v3.64c0,.94.54,1.5,1.62,1.66v.56ZM116.7,233c-.45-.05-.68.25-.68.91v4.49a8.08,8.08,0,0,0,.9.27,7.43,7.43,0,0,0,1.1.21,1.65,1.65,0,0,0,.93-.1,1.62,1.62,0,0,0,.65-.54,2.15,2.15,0,0,0,.37-.84,4.36,4.36,0,0,0,.12-1,3,3,0,0,0-3-3.31Z"/><path d="M130.68,246.93v-.58c1.16.18,1.75-.18,1.75-1.08v-4.06a2.35,2.35,0,0,0-1.35-.48l-3.15-.44a3,3,0,0,0-.66,0,1.65,1.65,0,0,0-.58.14v4c0,.88.52,1.41,1.59,1.57v.58l-5-.78v-.57c1.15.18,1.74-.17,1.74-1.05v-8.51a1.75,1.75,0,0,0-1.74-1.9v-.57l5,.61v.58c-1.07-.13-1.59.37-1.59,1.5v3.29a3.9,3.9,0,0,0,1.24.38l3.15.43a2.79,2.79,0,0,0,1.35,0V236.6a1.76,1.76,0,0,0-1.75-1.93v-.58l5.15.62v.59c-1.09-.13-1.64.38-1.64,1.52v8.71c0,.9.55,1.44,1.64,1.61v.58Z"/><path d="M139.7,248.32v-.59c1.25.19,1.89,0,1.89-.63v-3.89l-3.09-5.91c-.62-1.19-1.29-1.83-2-1.91v-.59l5,.61V236c-.89-.11-1.33.07-1.33.52a.63.63,0,0,0,.07.3c.05.1.12.25.22.43l2.63,5.06,2.43-4.34a2.71,2.71,0,0,0,.09-.41,2.12,2.12,0,0,0,0-.44c0-.4-.5-.67-1.51-.79v-.6l4.41.54v.6a1.52,1.52,0,0,0-1.51.59l-3.54,6v4.05c0,.56.62.94,1.87,1.13v.6Z"/><g id="Layer0_2_FILL" data-name="Layer0 2 FILL"><path class="cls-5" d="M167.26,82.44Q165.79,86,166,98.1q.18,12.8,2.4,16.62l3.47-.27q-2.22-3.83-2.41-16.63-.21-12.09,1.25-15.74l-3.46.36M31.71,109.56q-.18-10.09.82-13.56l-2.77.27c-.66,2.28-.94,6.78-.85,13.53Q29.06,120.56,31,125l2.67-.18Q31.82,120,31.71,109.56Z"/><path class="cls-19" d="M32.53,96q-1,3.47-.82,13.56.11,10.44,2,15.23l134.73-10.07q-2.22-3.82-2.4-16.62-.21-12.1,1.25-15.66L32.53,96m167.68-4.47q.39-11.37,1.73-12.59l-31.22,3.14q-1.46,3.65-1.25,15.74.19,12.8,2.41,16.63l29.18-2.16a123.21,123.21,0,0,1-.85-20.76m3-7.42a44.71,44.71,0,0,0-.52,6.48l28.39,20.58a36,36,0,0,1,.76-5l-28.63-22.1M13.29,97.94c-.83.31-1.55,1.51-2.16,3.62a33,33,0,0,0-1.06,7.3Q9.51,119,12.38,123.63l16.75,1.49L31,125q-1.95-4.41-2.1-15.17c-.09-6.75.19-11.25.85-13.53Z"/><path class="cls-20" d="M203.34,109.65a88.1,88.1,0,0,1-.76-15c0-1.52.06-2.89.09-4.1a44.71,44.71,0,0,1,.52-6.48l28.63,22.1,1.46,1.13c1.05-.08,1.45-.66,1.22-1.74L201.94,78.94q-1.33,1.23-1.73,12.59a123.21,123.21,0,0,0,.85,20.76l31.8,10.7a1,1,0,0,0,.82-.76,1.24,1.24,0,0,0-.12-1l-2.25-.85Z"/><path class="cls-1" d="M202.58,94.69a88.1,88.1,0,0,0,.76,15l28,10.73a33.37,33.37,0,0,1-.34-7.12c0-.68,0-1.38.09-2.09L202.67,90.59C202.64,91.8,202.61,93.17,202.58,94.69Z"/></g><path id="Layer0_2_1_STROKES" data-name="Layer0 2 1 STROKES" class="cls-21" d="M13.28,98l16.5-1.66M13.28,98c-.83.3-1.55,1.51-2.15,3.61a33,33,0,0,0-1.07,7.3Q9.52,119,12.37,123.63l16.75,1.49L31,125m-1.23-28.7L32.54,96,167.25,82.44l3.47-.35L201.94,79l32.55,26.67c.24,1.07-.17,1.64-1.21,1.72l-1.46-1.12a34.23,34.23,0,0,0-.76,5c-.06.7-.09,1.39-.09,2.08a32.46,32.46,0,0,0,.35,7.11l2.23.85a1.26,1.26,0,0,1,.12,1,1,1,0,0,1-.82.76l-31.8-10.7-29.18,2.17-3.46.26L33.7,124.79,31,125M202.68,90.61c0,1.2-.08,2.57-.11,4.08a89.09,89.09,0,0,0,.76,15l28,10.73M203.18,84.12l28.64,22.1m-28.64-22.1a45.81,45.81,0,0,0-.5,6.49M201.94,79c-.9.81-1.47,5-1.74,12.58a124.34,124.34,0,0,0,.85,20.77"/><g id="Layer0_3_FILL" data-name="Layer0 3 FILL"><path class="cls-2" d="M245.44,132.84a12.8,12.8,0,0,1,.91-4.35l-40.67-14a32,32,0,0,0-.73,6.72Z"/><path class="cls-1" d="M245.17,138.1c.05-2.07.14-3.82.27-5.26L205,121.23c-.07,1.78-.11,3.85-.12,6.23a111.61,111.61,0,0,0,.85,16.54l40.7,4.77Q245,146.31,245.17,138.1Z"/><path class="cls-22" d="M246.35,128.49l1.77.61q1.2-.81.36-2.49l-45.17-17.27q-1.62,1.62-1.64,17.79t1.7,20.58l45.26,3.46a1.82,1.82,0,0,0,0-2.13l-2.25-.27L205.68,144a111.61,111.61,0,0,1-.85-16.54c0-2.38,0-4.45.12-6.23a32,32,0,0,1,.73-6.72Z"/><path class="cls-5" d="M40.89,122.69l-2.52.21q-2.62,3.16-1,25a14.47,14.47,0,0,0,.76,3.46l2.53-.06a12,12,0,0,1-.79-3.55q-1.65-22.11,1-25.08m131.87-10.85-3.16.27q-3.45,3.61-1.37,31.37c.34,2.74.78,4.39,1.34,5l3.19-.07q-.88-.66-1.46-5.1Q169.23,115.31,172.76,111.84Z"/><path class="cls-3" d="M38.37,122.9l-16.12,1.34c-.72.36-1.35,1.7-1.88,4a41.09,41.09,0,0,0-.88,7.9q-.36,11.1,2.76,15.6l15.87-.37a14.47,14.47,0,0,1-.76-3.46q-1.61-21.85,1-25m1.49,24.87a12,12,0,0,0,.79,3.55l128.92-2.88c-.56-.57-1-2.22-1.34-5q-2.08-27.75,1.37-31.37L40.89,122.69q-2.69,3-1,25.08m131.44-4.5q.57,4.44,1.46,5.1l30.61-.66q-1.71-4.41-1.7-20.58t1.64-17.79l-30.55,2.5Q169.22,115.31,171.3,143.27Z"/></g><path id="Layer0_3_1_STROKES" data-name="Layer0 3 1 STROKES" class="cls-7" d="M22.25,151.75l15.87-.35M19.49,136.16q-.37,11.09,2.76,15.59m-1.88-23.5a41.11,41.11,0,0,0-.88,7.91m2.76-11.92c-.73.37-1.36,1.7-1.88,4m1.88-4,16.11-1.32,2.54-.21,128.69-10.6,3.16-.26,30.55-2.5,45.18,17.28c.56,1.11.44,1.93-.37,2.48l-1.75-.61a12.25,12.25,0,0,0-.92,4.34c-.14,1.44-.23,3.19-.28,5.26q-.18,8.22,1.22,10.69l2.25.26a1.8,1.8,0,0,1,0,2.12l-45.27-3.46-30.59.67-3.21.07L40.64,151.34l-2.52.06M205,121.25c-.08,1.76-.12,3.84-.13,6.21a112.92,112.92,0,0,0,.85,16.54l40.71,4.79m-40.71-34.28,40.69,14m-40.69-14a33,33,0,0,0-.72,6.74m-1.65-11.9q-1.61,1.61-1.64,17.78t1.7,20.58"/><g id="Layer0_4_FILL" data-name="Layer0 4 FILL"><path class="cls-1" d="M200.55,166.69q-.09,14.19,1,16.91L262.11,178a61.79,61.79,0,0,1-.9-13.3q0-3.37.23-5.8l-60.65-1.28Q200.6,161.32,200.55,166.69Z"/><path class="cls-23" d="M169.25,148l-3.61.14Q163,151.92,163,166.83t2.81,18.29l3.51.14q-2.61-5.61-2.66-18.43,0-14.91,2.57-18.86M44.84,151.68q-2,2.65-2.32,13.49-.39,11.45,2.32,14.58l2.38.09q-2.72-3.22-2.33-14.67.33-10.83,2.33-13.59Z"/><path class="cls-24" d="M197.65,165.36a89.37,89.37,0,0,1,1.14-15.25,10,10,0,0,1,1-3l-30.49.9q-2.62,3.94-2.57,18.86,0,12.82,2.66,18.43l30.4,1.38a19.35,19.35,0,0,1-.85-2.81q-1.42-6.17-1.24-18.47M47.22,151.58q-2,2.76-2.33,13.59-.37,11.45,2.33,14.67l118.61,5.28q-2.76-3.33-2.81-18.29t2.62-18.72L47.22,151.58m-4.7,13.59q.33-10.83,2.32-13.49l-13.3.38c-.79.12-1.52,1.34-2.18,3.65a41,41,0,0,0-1.33,8q-.95,11.35,2.9,15.44l13.91.62Q42.14,176.62,42.52,165.17Z"/><path class="cls-25" d="M200.79,157.66c.15-3.89.42-6.35.8-7.36l60.71,3.61,2.14.14a1.55,1.55,0,0,0,.23-2.14l-64.93-4.84a10,10,0,0,0-1,3,89.37,89.37,0,0,0-1.14,15.25q-.19,12.3,1.24,18.47a19.35,19.35,0,0,0,.85,2.81l65.6-6.75a1.65,1.65,0,0,0-.43-2.14l-2.8.29-60.56,5.56q-1.1-2.72-1-16.91Q200.6,161.32,200.79,157.66Z"/><path class="cls-2" d="M201.59,150.3c-.38,1-.65,3.47-.8,7.36l60.65,1.28a19.46,19.46,0,0,1,.86-5Z"/></g><path id="Layer0_4_1_STROKES" data-name="Layer0 4 1 STROKES" class="cls-16" d="M44.84,179.75l2.38.09m0-28.26-2.38.1-13.3.38c-.79.12-1.52,1.34-2.18,3.65a41,41,0,0,0-1.33,8q-.95,11.35,2.9,15.44l13.91.62M262.3,153.91l-60.71-3.61c-.38,1-.65,3.47-.8,7.36m60.65,1.28a19.46,19.46,0,0,1,.86-5l2.14.14a1.55,1.55,0,0,0,.23-2.14l-64.93-4.84a10,10,0,0,0-1,3,89.37,89.37,0,0,0-1.14,15.25q-.19,12.3,1.24,18.47a19.35,19.35,0,0,0,.85,2.81l65.6-6.75a1.65,1.65,0,0,0-.43-2.14l-2.8.29-60.56,5.56q-1.1-2.72-1-16.91,0-5.37.24-9m-35.15-9.55,3.61-.14,30.49-.9m-30.4,38.19-3.51-.14L47.22,179.84m122.12,5.42,30.4,1.38m61.7-27.7q-.22,2.43-.23,5.8a61.79,61.79,0,0,0,.9,13.3M47.22,151.58l118.42-3.47"/><path d="M66,173.42v-.62c1.08,0,1.62-.45,1.62-1.4v-4.35a1.73,1.73,0,0,0-1.24-.31H63.43a2.37,2.37,0,0,0-.61.07,1.6,1.6,0,0,0-.54.23v4.28a1.3,1.3,0,0,0,1.47,1.44v.62l-4.65-.1v-.61c1.07,0,1.6-.43,1.6-1.37v-9.09c0-1.19-.53-1.78-1.6-1.76v-.61l4.65-.1v.62c-1,0-1.47.63-1.47,1.84v3.51a2.88,2.88,0,0,0,1.15.22h2.92a2.36,2.36,0,0,0,1.24-.23v-3.57c0-1.23-.54-1.83-1.62-1.81v-.62l4.78-.1v.63c-1,0-1.52.64-1.52,1.87v9.32c0,1,.51,1.45,1.52,1.47v.63Z"/><path d="M72.44,173.56v-.64c1.08,0,1.62-.46,1.62-1.43V162c0-1.25-.57-1.86-1.69-1.84v-.63l5-.1v.64c-1.07,0-1.6.65-1.6,1.9v9.5c0,1,.55,1.48,1.67,1.5v.65Z"/><path d="M86.1,163.72a6.44,6.44,0,0,0-1.23-2.82,2.52,2.52,0,0,0-2.09-1,2.14,2.14,0,0,0-1.63.68,2.32,2.32,0,0,0-.61,1.65,2.14,2.14,0,0,0,.44,1.34,3.83,3.83,0,0,0,1.31,1c.73.38,1.4.69,2,.94a6.79,6.79,0,0,1,1.56.89,3.41,3.41,0,0,1,1,1.27,5,5,0,0,1,.36,2.09,6.24,6.24,0,0,1-.21,1.61,4.39,4.39,0,0,1-.65,1.4,3.15,3.15,0,0,1-1.15,1,3.42,3.42,0,0,1-1.68.35,5.52,5.52,0,0,1-1.09-.13,3.79,3.79,0,0,1-.77-.28,2.32,2.32,0,0,1-.49-.31l-.25-.22a7.59,7.59,0,0,1-.67.52,2.19,2.19,0,0,1-.67.33c-.13-1.09-.23-2.06-.3-2.9s-.09-1.57-.09-2.2h.58a4.68,4.68,0,0,0,.32,1.74,4.48,4.48,0,0,0,.82,1.36,3.83,3.83,0,0,0,1.12.9,2.76,2.76,0,0,0,1.22.33,2.65,2.65,0,0,0,.84-.13,2.79,2.79,0,0,0,.88-.47,2.67,2.67,0,0,0,.69-.82,2.37,2.37,0,0,0,.28-1.2,3,3,0,0,0-.39-1.53,2.62,2.62,0,0,0-1.25-1l-1.9-.81a7,7,0,0,1-1.59-.87,3.71,3.71,0,0,1-1.09-1.27,4.29,4.29,0,0,1-.41-2,4.74,4.74,0,0,1,.27-1.64,4,4,0,0,1,.71-1.27,3.29,3.29,0,0,1,1.06-.84,3,3,0,0,1,1.27-.32,2.45,2.45,0,0,1,1.33.31l1,.58a3.58,3.58,0,0,1,1.19-.79,13.82,13.82,0,0,1,.37,2.14c.07.75.11,1.57.11,2.44Z"/><path d="M90.48,173.92v-.66a1.77,1.77,0,0,0,2-2v-10.3q0-.83-.93-.81a2.52,2.52,0,0,0-2,1A6.6,6.6,0,0,0,88.42,164l-.57-.17.5-4.7.81.09.74,0,7.35-.15.84-.06.88-.13v4.75l-.53.09c-.15-2.42-1.19-3.61-3.1-3.58-.63,0-1,.27-1,.78v10.35a1.87,1.87,0,0,0,2.08,2.11v.68Z"/><path d="M106.54,174.6a5.82,5.82,0,0,1-2.66-.67,6.47,6.47,0,0,1-2.08-1.71,8.31,8.31,0,0,1-1.36-2.51,9.51,9.51,0,0,1-.48-3.05,9.69,9.69,0,0,1,.45-2.93,8.57,8.57,0,0,1,1.32-2.55,6.89,6.89,0,0,1,2.08-1.83,5.68,5.68,0,0,1,2.73-.74,6.42,6.42,0,0,1,2.78.54,6.59,6.59,0,0,1,2.22,1.63,7.68,7.68,0,0,1,1.46,2.51,9.44,9.44,0,0,1,0,6.18,8.82,8.82,0,0,1-1.42,2.64,7.13,7.13,0,0,1-2.21,1.84A5.81,5.81,0,0,1,106.54,174.6Zm.17-.9a3.51,3.51,0,0,0,2-.51,4.14,4.14,0,0,0,1.38-1.49,7.36,7.36,0,0,0,.8-2.25,13.72,13.72,0,0,0,.27-2.8,13.39,13.39,0,0,0-.27-2.71,7.84,7.84,0,0,0-.82-2.32,4.7,4.7,0,0,0-1.47-1.62,3.65,3.65,0,0,0-2.17-.57,3.34,3.34,0,0,0-2,.61,4.41,4.41,0,0,0-1.29,1.56,7.68,7.68,0,0,0-.7,2.23,16,16,0,0,0-.21,2.64,13.94,13.94,0,0,0,.26,2.82,7.75,7.75,0,0,0,.8,2.28,4.35,4.35,0,0,0,1.4,1.54A3.72,3.72,0,0,0,106.71,173.7Z"/><path d="M129.54,172.58a2.62,2.62,0,0,1-.12.71,2.85,2.85,0,0,1-.39.78,2.78,2.78,0,0,1-.65.63,1.43,1.43,0,0,1-.86.25,3.46,3.46,0,0,1-2-.54,3,3,0,0,1-1-1.64c-.18-.62-.36-1.28-.54-2a13.79,13.79,0,0,0-.64-1.94,4.87,4.87,0,0,0-.9-1.48,1.71,1.71,0,0,0-1.33-.59h-.66c-.4,0-.63.08-.69.26v5.21c0,1,.68,1.57,2,1.6v.72l-6.16-.12v-.72c1.26,0,1.9-.48,1.9-1.51v-11.3c0-1-.69-1.51-2-1.49v-.73l2.7-.06,1.22,0,1-.06,1-.06,1.32,0a5.4,5.4,0,0,1,1.81.27,4.41,4.41,0,0,1,1.48.81,3.8,3.8,0,0,1,1,1.26,3.49,3.49,0,0,1,.36,1.58,3.65,3.65,0,0,1-.29,1.52,3.53,3.53,0,0,1-.83,1.15,5.13,5.13,0,0,1-1.26.84,8,8,0,0,1-1.59.53v.08a5.81,5.81,0,0,1,1.79,1.39,5.13,5.13,0,0,1,1,1.63c.09.33.19.72.31,1.18s.27.89.42,1.3a4.7,4.7,0,0,0,.56,1.05,1,1,0,0,0,.78.44c.37,0,.64-.36.8-1.1Zm-8.11-6.76a9.11,9.11,0,0,0,1.29-.09,2.83,2.83,0,0,0,1.12-.44,2.43,2.43,0,0,0,.79-1,3.94,3.94,0,0,0,.31-1.73,3.34,3.34,0,0,0-.31-1.53,2.51,2.51,0,0,0-.78-.94,3,3,0,0,0-1.06-.48,5,5,0,0,0-1.14-.13l-1.06,0c-.56,0-.84.46-.84,1.36v4.59a.48.48,0,0,0,.53.36Z"/><path d="M133,174.79v-.74c1.61,0,2.41-.34,2.41-1.11v-4.88l-3.93-6.88c-.79-1.37-1.64-2.05-2.54-2v-.74l6.38-.13V159c-1.14,0-1.71.32-1.71.88a.79.79,0,0,0,.1.37c.06.12.16.28.28.5l3.36,5.89,3.11-5.88a4.28,4.28,0,0,0,.12-.54,2.59,2.59,0,0,0,0-.56c0-.5-.65-.75-1.94-.72v-.76l5.68-.11v.76a2.25,2.25,0,0,0-2,1L137.9,168v5.08c0,.71.8,1.07,2.4,1.1v.76Z"/><path d="M58.12,139.23a4.75,4.75,0,0,1-.48,1.61,4,4,0,0,1-.85,1.15,3.73,3.73,0,0,1-1.14.7,3.84,3.84,0,0,1-3.09-.11,4,4,0,0,1-1.37-1.17,5.62,5.62,0,0,1-.86-1.79,8.05,8.05,0,0,1-.3-2.25,8.36,8.36,0,0,1,.34-2.46,7,7,0,0,1,.93-2,4.71,4.71,0,0,1,1.37-1.34,3.54,3.54,0,0,1,1.68-.56,3,3,0,0,1,2,.66,2,2,0,0,1,1-.8,1.58,1.58,0,0,1,.13.39c.06.22.11.51.17.87s.09.77.13,1.23.06,1,.06,1.47l-.49,0a4.64,4.64,0,0,0-1.14-2.46,2.33,2.33,0,0,0-1.87-.72,2.26,2.26,0,0,0-1.32.49,3.36,3.36,0,0,0-.89,1.13,5.39,5.39,0,0,0-.5,1.53,9,9,0,0,0-.16,1.72,14.11,14.11,0,0,0,.17,2.25,6.5,6.5,0,0,0,.55,1.79,3.05,3.05,0,0,0,1,1.17,2.3,2.3,0,0,0,1.44.39,3.22,3.22,0,0,0,1-.17,2.06,2.06,0,0,0,.79-.51,3.45,3.45,0,0,0,.67-1,9.09,9.09,0,0,0,.59-1.48Z"/><path d="M65.55,142.34v-.53c1,0,1.49-.47,1.49-1.29v-3.76a1.68,1.68,0,0,0-1.14-.22l-2.69.13a2.52,2.52,0,0,0-.56.09,1.89,1.89,0,0,0-.5.23v3.71c0,.81.45,1.2,1.36,1.17v.54l-4.29.14V142c1,0,1.48-.46,1.48-1.27v-7.87c0-1-.5-1.52-1.48-1.46v-.53l4.29-.28v.53c-.91.06-1.36.61-1.36,1.66v3a2.81,2.81,0,0,0,1.06.14l2.69-.14a2.27,2.27,0,0,0,1.14-.25V132.5c0-1.06-.5-1.56-1.49-1.49v-.54l4.39-.29v.54c-.93.06-1.39.62-1.39,1.69v8.05c0,.83.46,1.23,1.39,1.2v.54Z"/><path d="M71.54,142.15v-.54c.95,0,1.43-.45,1.43-1.24v-8.3a1.27,1.27,0,0,0-1.54-1.44v-.55l8.37-.56.13,3.48-.51.11a4.68,4.68,0,0,0-.44-1.54,2,2,0,0,0-.7-.79,2,2,0,0,0-.94-.25c-.36,0-.74,0-1.16,0l-.44,0c-.81.06-1.21.36-1.21.91v3.29c0,.37.13.55.38.53l.54,0a5.41,5.41,0,0,0,.74-.08,1.35,1.35,0,0,0,.61-.27,1.4,1.4,0,0,0,.43-.62,4.14,4.14,0,0,0,.24-1.09l.59,0V138l-.59,0a5.23,5.23,0,0,0-.2-1.08,1.2,1.2,0,0,0-.37-.59,1.06,1.06,0,0,0-.59-.25,4.66,4.66,0,0,0-.86,0h-.19c-.49,0-.73.23-.73.64v3.51c0,.7.42,1,1.27,1h.5a6,6,0,0,0,1.62-.24,2.3,2.3,0,0,0,1-.59,3,3,0,0,0,.63-1q.24-.58.48-1.38l.44.13L80,141.88Z"/><path d="M90.42,141.55V141c1,0,1.52-.52,1.52-1.46l-.12-9-3.67,11.08h-.48l-3.84-10.43-.06,8.33c0,1.11.54,1.64,1.67,1.6v.57l-4,.13v-.56c1,0,1.53-.66,1.59-1.87l.13-8.42v-.18a1.48,1.48,0,0,0,0-.38.51.51,0,0,0-.22-.29,1.13,1.13,0,0,0-.5-.16,5,5,0,0,0-.89,0v-.56l3.42-.23,3.42,9.46,3.33-9.91,3.56-.24v.58a4.39,4.39,0,0,0-.92.15,1.14,1.14,0,0,0-.5.29.79.79,0,0,0-.21.39,2.15,2.15,0,0,0,0,.45l.19,9c0,1,.53,1.54,1.61,1.5v.59Z"/><path d="M97.14,141.34v-.59q1.71-.06,1.71-1.41v-8.77c0-1.15-.59-1.69-1.78-1.61v-.59l5.27-.35v.59a1.63,1.63,0,0,0-1.69,1.85v8.81c0,.91.59,1.35,1.77,1.31v.59Z"/><path d="M111.58,131.51a5.31,5.31,0,0,0-1.29-2.55,2.72,2.72,0,0,0-2.22-.84,2.51,2.51,0,0,0-1.72.71,2.13,2.13,0,0,0-.64,1.57,1.73,1.73,0,0,0,.46,1.22,3.74,3.74,0,0,0,1.39.88c.77.31,1.47.56,2.11.76a7.44,7.44,0,0,1,1.65.74,3.1,3.1,0,0,1,1.06,1.13,3.94,3.94,0,0,1,.38,1.92,5.19,5.19,0,0,1-.22,1.5,4.16,4.16,0,0,1-.69,1.34,3.55,3.55,0,0,1-1.21,1,4.12,4.12,0,0,1-1.77.41,6.6,6.6,0,0,1-1.15-.06,4.16,4.16,0,0,1-.82-.22,3.56,3.56,0,0,1-.52-.26l-.26-.2a8.17,8.17,0,0,1-.71.53,3.05,3.05,0,0,1-.71.34c-.14-1-.24-1.9-.31-2.67s-.1-1.46-.1-2l.61,0a3.6,3.6,0,0,0,.34,1.59,3.89,3.89,0,0,0,.86,1.22,3.69,3.69,0,0,0,1.19.77,3,3,0,0,0,1.29.25,3.15,3.15,0,0,0,.89-.17,3.08,3.08,0,0,0,.92-.47,2.94,2.94,0,0,0,.73-.8,2.07,2.07,0,0,0,.3-1.13,2.41,2.41,0,0,0-.41-1.4,2.56,2.56,0,0,0-1.32-.89c-.7-.24-1.37-.46-2-.65a7.22,7.22,0,0,1-1.68-.74,3.25,3.25,0,0,1-1.15-1.12,3.36,3.36,0,0,1-.43-1.84,4,4,0,0,1,.28-1.53,3.92,3.92,0,0,1,.75-1.21,3.83,3.83,0,0,1,1.12-.84,3.57,3.57,0,0,1,1.35-.36,2.93,2.93,0,0,1,1.4.22l1.08.49a4,4,0,0,1,1.25-.8,11.72,11.72,0,0,1,.39,2,19.91,19.91,0,0,1,.12,2.26Z"/><path d="M116.2,140.73v-.61q2.13-.08,2.13-2V128.6c0-.51-.33-.74-1-.7a3,3,0,0,0-2.12,1,6,6,0,0,0-1.2,2.71l-.61-.13.53-4.39.86,0a6.54,6.54,0,0,0,.77,0l7.76-.52c.29,0,.59,0,.89-.1s.61-.1.93-.16v4.4l-.56.11c-.16-2.23-1.26-3.28-3.27-3.15-.67,0-1,.3-1,.77v9.59c0,1.27.73,1.88,2.2,1.84v.62Z"/><path d="M140,138.08a2.2,2.2,0,0,1-.12.64,2.72,2.72,0,0,1-.38.71,2.5,2.5,0,0,1-.63.58,1.49,1.49,0,0,1-.83.27,3.41,3.41,0,0,1-2-.38,2.44,2.44,0,0,1-.94-1.41c-.18-.54-.35-1.12-.53-1.73a11.62,11.62,0,0,0-.61-1.7,4.15,4.15,0,0,0-.88-1.27,1.64,1.64,0,0,0-1.29-.46l-.64,0c-.39,0-.61.1-.66.26v4.63c0,.93.65,1.37,2,1.32v.65l-6,.19v-.64c1.23,0,1.85-.52,1.85-1.44v-10c0-.91-.67-1.32-2-1.23v-.66l2.63-.17,1.19-.09.94-.1,1-.09,1.28-.1a5.64,5.64,0,0,1,1.76.15,4.17,4.17,0,0,1,1.43.65,3.38,3.38,0,0,1,1,1.07,2.84,2.84,0,0,1,.35,1.39,3.12,3.12,0,0,1-.29,1.36,3.3,3.3,0,0,1-.8,1.06,4.86,4.86,0,0,1-1.22.8,7.54,7.54,0,0,1-1.54.55V133a5.26,5.26,0,0,1,1.73,1.16,3.93,3.93,0,0,1,.93,1.39l.31,1a8.82,8.82,0,0,0,.41,1.13,3.48,3.48,0,0,0,.54.91.9.9,0,0,0,.75.35c.35,0,.61-.35.78-1Zm-7.86-5.61a10,10,0,0,0,1.25-.14,2.81,2.81,0,0,0,1.08-.45,2.45,2.45,0,0,0,.78-.9,3.54,3.54,0,0,0,.29-1.55,2.74,2.74,0,0,0-.29-1.34,2.15,2.15,0,0,0-.77-.81,2.78,2.78,0,0,0-1-.37,5.18,5.18,0,0,0-1.1-.06l-1,.07c-.54,0-.81.45-.81,1.24v4.08c.05.21.22.31.51.29Z"/><path d="M143.35,139.87v-.66c1.55-.05,2.33-.42,2.33-1.1v-4.32l-3.8-5.91q-1.14-1.77-2.46-1.68v-.66l6.17-.41v.66c-1.1.08-1.65.36-1.65.86a.63.63,0,0,0,.09.33l.27.42,3.24,5.07,3-5.36c0-.15.08-.31.11-.48a2.83,2.83,0,0,0,.05-.5c0-.45-.62-.63-1.87-.55v-.67l5.47-.36v.68a2.34,2.34,0,0,0-1.88,1l-4.38,7.41v4.51c0,.62.77.91,2.31.86v.67Z"/><path d="M52.42,112.33v-.56c1.1-.07,1.65-.55,1.65-1.45V101.6c0-.75-.58-1.06-1.72-.95v-.58l3-.29.94-.1.61-.08.54-.07.73-.08c2.8-.27,4.21.82,4.21,3.27a3.66,3.66,0,0,1-.26,1.36,3.43,3.43,0,0,1-.78,1.17,4.26,4.26,0,0,1-1.34.84,6.41,6.41,0,0,1-1.9.42c-.4,0-.78,0-1.16,0a7.92,7.92,0,0,1-1.1-.07v3.64q0,1.41,1.83,1.29V112Zm4.24-12.09c-.52.05-.78.4-.78,1.06v4.49c.31,0,.65.06,1,.07a11.05,11.05,0,0,0,1.24,0,2.28,2.28,0,0,0,1-.32,2.5,2.5,0,0,0,.73-.68,2.82,2.82,0,0,0,.42-.93,4.24,4.24,0,0,0,.13-1.07c0-2-1.12-2.83-3.33-2.62Z"/><path d="M72.41,111v-.58c1.32-.09,2-.58,2-1.48v-4.07a2.61,2.61,0,0,0-1.52-.17l-3.55.3a4.52,4.52,0,0,0-.75.12,3.19,3.19,0,0,0-.66.28v4q0,1.32,1.8,1.2v.58l-5.67.38V111c1.3-.09,1.95-.58,1.95-1.46V101q0-1.68-1.95-1.5v-.57l5.67-.55V99a1.73,1.73,0,0,0-1.8,1.87v3.29a4.06,4.06,0,0,0,1.41.09l3.55-.29a3.85,3.85,0,0,0,1.52-.34v-3.35q0-1.71-2-1.53v-.58l5.82-.56v.59a1.76,1.76,0,0,0-1.85,1.9v8.72c0,.9.62,1.31,1.85,1.22v.59Z"/><path d="M82.6,110.3v-.6c1.42-.09,2.13-.45,2.13-1.06v-3.89l-3.48-5.22c-.7-1-1.46-1.52-2.26-1.45v-.59L84.65,97v.59c-1,.1-1.51.37-1.51.83a.52.52,0,0,0,.09.29c0,.08.13.21.25.37l3,4.47,2.75-4.92c0-.13.08-.28.11-.43a2.28,2.28,0,0,0,0-.45c0-.4-.57-.55-1.71-.44v-.6l5-.49v.61a2.27,2.27,0,0,0-1.71.93l-4,6.8v4.06c0,.56.7.79,2.11.69v.61Z"/><path d="M102,99.45a4.94,4.94,0,0,0-1.52-2.54,3.32,3.32,0,0,0-2.59-.75,3.4,3.4,0,0,0-2,.8,2.14,2.14,0,0,0-.75,1.62,1.6,1.6,0,0,0,.54,1.23,4.19,4.19,0,0,0,1.63.83c.9.28,1.73.51,2.47.68a8.83,8.83,0,0,1,1.93.68,3.12,3.12,0,0,1,1.25,1.1,3.55,3.55,0,0,1,.45,1.94,4.57,4.57,0,0,1-.27,1.53,4.08,4.08,0,0,1-.8,1.4,4.42,4.42,0,0,1-1.42,1,5.73,5.73,0,0,1-2.08.5,8.51,8.51,0,0,1-1.35,0,6.11,6.11,0,0,1-1-.19,2.86,2.86,0,0,1-.61-.24l-.31-.18c-.28.2-.55.39-.83.56a3.47,3.47,0,0,1-.84.38c-.16-1-.28-1.92-.36-2.71a20.72,20.72,0,0,1-.12-2.07l.73-.06a3.28,3.28,0,0,0,.39,1.61,3.81,3.81,0,0,0,1,1.2,4.43,4.43,0,0,0,1.39.74,4.26,4.26,0,0,0,1.52.19,4,4,0,0,0,1-.22,4.13,4.13,0,0,0,1.08-.52,3.31,3.31,0,0,0,.86-.85,2,2,0,0,0,.35-1.16,2.16,2.16,0,0,0-.49-1.41,2.85,2.85,0,0,0-1.54-.85c-.83-.21-1.61-.4-2.36-.57a8.91,8.91,0,0,1-2-.67,3.63,3.63,0,0,1-1.35-1.08,3,3,0,0,1-.5-1.86A3.71,3.71,0,0,1,93.93,98a4.39,4.39,0,0,1,.89-1.28,4.84,4.84,0,0,1,1.31-.9,5.15,5.15,0,0,1,1.58-.43,3.7,3.7,0,0,1,1.64.16l1.27.45a5.08,5.08,0,0,1,1.47-.87,10.22,10.22,0,0,1,.45,2,18.1,18.1,0,0,1,.14,2.3Z"/><path d="M105.54,108.76v-.63c1.46-.1,2.2-.63,2.2-1.6V97.19c0-1.23-.77-1.78-2.29-1.63v-.63l6.77-.65v.63c-1.45.14-2.17.83-2.17,2.07v9.39c0,1,.75,1.4,2.26,1.3v.63Z"/><path d="M128.79,103a5.6,5.6,0,0,1-.85,2,6.15,6.15,0,0,1-1.51,1.5,7.8,7.8,0,0,1-2,1,9.67,9.67,0,0,1-2.29.44,8.56,8.56,0,0,1-3.15-.34,6.57,6.57,0,0,1-2.39-1.34,5.94,5.94,0,0,1-1.51-2.17,7,7,0,0,1-.53-2.77,8,8,0,0,1,.6-3.1,8.44,8.44,0,0,1,4-4.33,8.34,8.34,0,0,1,3-.84,6.52,6.52,0,0,1,3.61.65,3.83,3.83,0,0,1,1.81-1.09,1.41,1.41,0,0,1,.22.47,7.49,7.49,0,0,1,.29,1.07,13.56,13.56,0,0,1,.24,1.54,15,15,0,0,1,.11,1.83l-.86.07a4.74,4.74,0,0,0-5.32-3.71,5.21,5.21,0,0,0-2.31.73,5.11,5.11,0,0,0-1.56,1.47,6.13,6.13,0,0,0-.89,2,8.77,8.77,0,0,0-.28,2.16,11.63,11.63,0,0,0,.31,2.79,6.11,6.11,0,0,0,1,2.18,4.29,4.29,0,0,0,1.71,1.38,5.33,5.33,0,0,0,2.54.38,8.35,8.35,0,0,0,1.7-.29,4.84,4.84,0,0,0,1.4-.7,5.41,5.41,0,0,0,1.18-1.24,11.73,11.73,0,0,0,1-1.9Z"/><path d="M140.93,96a5.33,5.33,0,0,0-1.78-2.74,4.71,4.71,0,0,0-5.42.1,2.22,2.22,0,0,0-.88,1.76,1.63,1.63,0,0,0,.64,1.32,5,5,0,0,0,1.9.89q1.59.44,2.91.72a11,11,0,0,1,2.27.72A3.54,3.54,0,0,1,142,100a3.62,3.62,0,0,1,.53,2.1,4.93,4.93,0,0,1-.31,1.67,4.47,4.47,0,0,1-.95,1.51,5.16,5.16,0,0,1-1.66,1.15,7,7,0,0,1-2.44.55,9.2,9.2,0,0,1-1.58,0,7.81,7.81,0,0,1-1.12-.19,4.37,4.37,0,0,1-.72-.26l-.36-.2c-.33.23-.65.43-1,.62a5.16,5.16,0,0,1-1,.42c-.18-1.11-.32-2.08-.42-2.94a21.79,21.79,0,0,1-.14-2.24l.85-.07a3.28,3.28,0,0,0,.46,1.74,4.23,4.23,0,0,0,1.19,1.3,5,5,0,0,0,1.63.78,5.21,5.21,0,0,0,1.77.2,5.11,5.11,0,0,0,1.23-.24,4.93,4.93,0,0,0,1.26-.57,3.75,3.75,0,0,0,1-.93,2,2,0,0,0,.41-1.26,2.17,2.17,0,0,0-.57-1.52,3.39,3.39,0,0,0-1.81-.91c-1-.22-1.89-.42-2.77-.6a11.88,11.88,0,0,1-2.31-.71,4.06,4.06,0,0,1-1.58-1.17,3.11,3.11,0,0,1-.59-2,3.9,3.9,0,0,1,.38-1.71,4.68,4.68,0,0,1,1-1.38,5.17,5.17,0,0,1,1.53-1,6,6,0,0,1,1.85-.48,4.72,4.72,0,0,1,1.93.16c.53.18,1,.33,1.49.47a5.85,5.85,0,0,1,1.72-1,10.16,10.16,0,0,1,.54,2.14,19.07,19.07,0,0,1,.16,2.49Z"/><path d="M74.84,84.34v-.69c.93-.17,1.39-.82,1.39-2l-.11-10.77L72.78,84.72l-.44.08L68.83,72.68l-.06,10.08c0,1.34.5,1.91,1.53,1.72v.69l-3.68.67v-.68c.92-.17,1.41-1,1.46-2.46l.12-10.21v-.23a2,2,0,0,0,0-.45.48.48,0,0,0-.2-.32.81.81,0,0,0-.46-.14,3.1,3.1,0,0,0-.82.1v-.69l3.14-.67,3.13,11,3-12.33,3.22-.69v.7a3,3,0,0,0-.83.28,1.27,1.27,0,0,0-.45.4,1.14,1.14,0,0,0-.19.49,3.31,3.31,0,0,0,0,.55l.17,10.73c0,1.25.49,1.78,1.45,1.6v.7Z"/><path d="M86.46,82.21V81.5l.49-.18a4,4,0,0,0,.46-.2,1.66,1.66,0,0,0,.35-.25.4.4,0,0,0,.14-.27,1.65,1.65,0,0,1,0-.27,1.57,1.57,0,0,0-.1-.42L87,77.13c-.12-.39-.46-.53-1-.43l-2.44.48a.87.87,0,0,0-.74.75l-.56,2.54a2.53,2.53,0,0,0-.06.62c0,.72.47,1,1.43.81v.83L80,83.39v-.81a1.48,1.48,0,0,0,.8-.62,4.33,4.33,0,0,0,.55-1.32L85.28,66.4l.49.18L89.7,79.9a1.72,1.72,0,0,0,.37.56s.11.05.27.08l.68.12v.72ZM85,69.79,83.59,75a3.54,3.54,0,0,0-.18.83c0,.24.21.32.61.24l2.06-.41c.33-.06.5-.19.5-.38a4.67,4.67,0,0,0-.18-.75Z"/><path d="M92.2,81.17v-.72C93.41,80.22,94,79.37,94,77.9V66.8c0-.59-.27-.83-.83-.71a2.74,2.74,0,0,0-1.8,1.4,9.31,9.31,0,0,0-1,3.29l-.52-.09.45-5.18.73,0a4.71,4.71,0,0,0,.67-.09L98.25,64a6.11,6.11,0,0,0,.75-.21c.25-.08.51-.18.78-.29v5.09l-.47.2q-.21-3.85-2.75-3.31a1,1,0,0,0-.86,1V77.58c0,1.48.62,2.11,1.86,1.88v.73Z"/><path d="M108.4,78.2v-.74a1.91,1.91,0,0,0,1.79-2V70.22c-.21-.21-.67-.24-1.37-.1l-3.23.64a3.18,3.18,0,0,0-.68.22,2.51,2.51,0,0,0-.6.4v5.14c0,1.13.55,1.59,1.64,1.39v.74l-5.18.95v-.73a1.91,1.91,0,0,0,1.79-2V65.93c0-1.44-.6-2-1.79-1.78v-.73L106,62.3V63c-1.09.24-1.64,1.08-1.64,2.52v4.22a2.75,2.75,0,0,0,1.28,0l3.23-.65a2.93,2.93,0,0,0,1.37-.55V64.33c0-1.46-.59-2.07-1.79-1.81v-.75l5.27-1.13v.75c-1.12.24-1.67,1.09-1.67,2.56V75.07c0,1.15.55,1.62,1.67,1.42v.75Z"/><path d="M52.4,57.29v-.57c1-.21,1.52-.72,1.52-1.54V46.59c0-1.06-.55-1.46-1.64-1.21v-.57l8.87-2,.13,3.57-.53.19A4.29,4.29,0,0,0,60.29,45a1.65,1.65,0,0,0-.74-.68,1.93,1.93,0,0,0-1-.1c-.37,0-.78.13-1.22.23l-.47.11c-.86.19-1.28.57-1.28,1.14v3.4c0,.38.13.54.4.49l.57-.13a5.66,5.66,0,0,0,.79-.22,1.7,1.7,0,0,0,.64-.39,1.86,1.86,0,0,0,.46-.71A4.47,4.47,0,0,0,58.69,47l.63-.14v5l-.63.13a4.9,4.9,0,0,0-.21-1.07,1,1,0,0,0-.39-.55,1.06,1.06,0,0,0-.63-.15,5.33,5.33,0,0,0-.91.13l-.2,0c-.51.11-.77.38-.77.8v3.62c0,.73.45,1,1.34.81l.53-.11a7.33,7.33,0,0,0,1.72-.53,3.24,3.24,0,0,0,1.07-.79A4,4,0,0,0,60.9,53c.16-.43.33-.93.5-1.51l.47.06-.47,3.9Z"/><path d="M73.22,53.29,65.36,44v7.81c0,1.54.6,2.19,1.81,1.94v.59l-4.2.85v-.58c1-.2,1.46-1.07,1.46-2.61V43.41c0-.54-.57-.68-1.72-.42v-.58l3.19-.73,7,8.23V42.84c0-1.45-.61-2-1.83-1.75V40.5l4.34-1v.6c-1.12.25-1.67,1.1-1.67,2.55v10.4Z"/><path d="M87,50.51l-1.38-.8a6.9,6.9,0,0,1-3.38,1.84,4.91,4.91,0,0,1-2.36,0,4.21,4.21,0,0,1-1.82-1,5,5,0,0,1-1.19-1.87,7.16,7.16,0,0,1-.42-2.52,9,9,0,0,1,.43-2.74,10.22,10.22,0,0,1,1.22-2.56,8.7,8.7,0,0,1,1.9-2,6.24,6.24,0,0,1,2.45-1.17,3.88,3.88,0,0,1,1.55,0,9.3,9.3,0,0,1,1.47.37,3.59,3.59,0,0,1,1.38-1.17,12,12,0,0,1,.65,4.48l-.65.15a4.61,4.61,0,0,0-1.49-2.56,3,3,0,0,0-2.69-.48,4.28,4.28,0,0,0-1.93.95,5.63,5.63,0,0,0-1.28,1.65,7.86,7.86,0,0,0-.7,2.1,12.7,12.7,0,0,0-.21,2.3,9.94,9.94,0,0,0,.25,2.32,4.93,4.93,0,0,0,.77,1.8,3,3,0,0,0,1.28,1.07,3,3,0,0,0,1.82.14,4.81,4.81,0,0,0,1.16-.4,3.7,3.7,0,0,0,1-.7,3.18,3.18,0,0,0,.65-1,3.54,3.54,0,0,0,.24-1.35c0-1.4-.65-2-1.93-1.69v-.61l5.46-1.17v.61a1.85,1.85,0,0,0-1.71,1.91V50.4Z"/><path d="M90.36,49.6V49c1.14-.23,1.71-.72,1.71-1.46V37.84c0-1-.64-1.42-1.93-1.12V36.1l5.69-1.31v.62c-1.21.28-1.82.94-1.82,2v9.73q0,.87,1.29.6l.91-.18a10.3,10.3,0,0,0,1.6-.46A5.49,5.49,0,0,0,99,46.46q.89-.68,1.59-3.3l.55,0-.61,4.43Z"/><path d="M101.92,47.26v-.63c1.29-.26,1.94-.88,1.94-1.84V35.43c0-1.23-.67-1.7-2-1.39v-.63l6-1.37v.64A2.16,2.16,0,0,0,105.9,35v9.4c0,1,.66,1.32,2,1.05v.63Z"/><path d="M118.19,34a4.46,4.46,0,0,0-1.44-2.46,2.78,2.78,0,0,0-2.49-.48,3.67,3.67,0,0,0-1.94,1.08,2.64,2.64,0,0,0-.72,1.79,1.56,1.56,0,0,0,.52,1.22,3.54,3.54,0,0,0,1.56.67c.87.18,1.66.31,2.38.41a6.86,6.86,0,0,1,1.84.47,2.62,2.62,0,0,1,1.2,1,3.71,3.71,0,0,1,.42,2,5.52,5.52,0,0,1-.25,1.63,5.28,5.28,0,0,1-.77,1.56,5.11,5.11,0,0,1-1.35,1.26,5.45,5.45,0,0,1-2,.78,7.75,7.75,0,0,1-1.3.16A4.66,4.66,0,0,1,113,45a1.87,1.87,0,0,1-.59-.18l-.29-.15c-.27.25-.54.49-.8.7a4.44,4.44,0,0,1-.81.5c-.15-1.05-.27-2-.34-2.79s-.12-1.53-.12-2.15l.7-.15a3.27,3.27,0,0,0,.38,1.63,3.15,3.15,0,0,0,1,1.13,3.5,3.5,0,0,0,1.33.6,3.54,3.54,0,0,0,1.45,0,4.45,4.45,0,0,0,1-.35,4.32,4.32,0,0,0,1-.69,4.11,4.11,0,0,0,.83-1,2.47,2.47,0,0,0,.33-1.26,2.12,2.12,0,0,0-.46-1.41,2.34,2.34,0,0,0-1.48-.69c-.79-.12-1.54-.22-2.26-.31a7.48,7.48,0,0,1-1.89-.46,3,3,0,0,1-1.3-1,3.12,3.12,0,0,1-.48-1.88,4.52,4.52,0,0,1,.31-1.68,5.5,5.5,0,0,1,.86-1.44,5.31,5.31,0,0,1,1.26-1.1,4.85,4.85,0,0,1,1.51-.63,3,3,0,0,1,1.57,0l1.22.31a5.55,5.55,0,0,1,1.4-1.08,11,11,0,0,1,.44,2,21.48,21.48,0,0,1,.13,2.38Z"/><path d="M131.1,41.35v-.66c1.51-.31,2.26-1,2.26-2V34.05a2.86,2.86,0,0,0-1.74,0l-4.07.88a5.61,5.61,0,0,0-.85.26,3.76,3.76,0,0,0-.76.42v4.58c0,1,.68,1.37,2.06,1.09V42l-6.51,1.32v-.65c1.49-.31,2.25-1,2.25-2V31c0-1.29-.76-1.76-2.25-1.41v-.66L128,27.4v.66a2.29,2.29,0,0,0-2.06,2.4v3.76a5,5,0,0,0,1.61-.1l4.07-.89a4.87,4.87,0,0,0,1.74-.62V28.79c0-1.31-.75-1.79-2.26-1.44v-.67l6.66-1.53v.67a2.37,2.37,0,0,0-2.12,2.46v9.94c0,1,.71,1.4,2.12,1.11V40Z"/><path class="cls-26" d="M264.91,177.75l-2.8.29-.67-19.1a19.46,19.46,0,0,1,.86-5l2.14.14a1.55,1.55,0,0,0,.23-2.14l-15.82-1.18a1.79,1.79,0,0,0-.22-1.69l-2.25-.27q-1.4-2.46-1.21-10.67c.05-2.07.14-3.82.27-5.26a22.62,22.62,0,0,1,.42-2.86,5.36,5.36,0,0,1,.5-1.48l0,0,1.7.59h0q1.2-.81.36-2.49L231.25,120a15.53,15.53,0,0,1-.22-1.88c-.09-1.29-.11-2.9-.06-4.88,0-.68,0-1.38.09-2.09a35.61,35.61,0,0,1,.76-5l1.46,1.12a1.41,1.41,0,0,0,1.09-.49,1.57,1.57,0,0,0,.13-1.25l-3.71-3,17.14-2.11,0,0h0l0,0a1.58,1.58,0,0,0,.23-.42,1.48,1.48,0,0,0-.23-1.37l-2.79-1.24q-1.27-3.72-1.31-12.31c0-1.92,0-3.55.09-4.9a27,27,0,0,1,.26-2.85,3.69,3.69,0,0,1,.48-1.57l1.93,1.11h0l.16-.28.76-1.21-11.38-7-.73-9.91v-.07l.84-3.52h0l1,1a1.28,1.28,0,0,0,1-.84,2.79,2.79,0,0,0,.11-1.46L190.24,6.2,161.66,13l-2.85.7-.4.09L37.64,42.65l-2.34.58L19,47.12h0Q17,49.28,16.6,58.06h0v0Q16.1,67.65,19,72v0h0L25,74.4c-.13.15-.26.31-.38.48q-2.12,2.91-2.39,10.06-.15,8,1.6,11.93L13.29,97.94a2.1,2.1,0,0,0-.89.73,8.91,8.91,0,0,0-1.27,2.89,33,33,0,0,0-1.07,7.3Q9.52,119,12.37,123.63l9.56.85a2,2,0,0,0-.2.21,9.41,9.41,0,0,0-1.36,3.56h0v0a41.11,41.11,0,0,0-.88,7.91v0h0q-.37,11.09,2.76,15.59h0l9.29.31c-.79.12-1.52,1.34-2.18,3.65a41,41,0,0,0-1.33,8q-.95,11.35,2.9,15.44l-3.27,1.75q-2.36,4.1-2.85,12.82-.6,9.68,2.35,14.91l.84,1.7q-2.49,2-2.89,13.76c0,.47,0,.92,0,1.36q0,9.9,2.89,12.43L40.52,240l2.15.37,2.44.4.1,0h-.07l103.09,17.67,21.27,3.65,3.79.65L203,267.86l.25.05,58.4-29.52,2.14-1.08V234L261.62,235c-.27-1.72-.49-3.36-.66-4.94a61.22,61.22,0,0,1-.26-12.47,30.28,30.28,0,0,1,.82-4.84l2.39-.8.25-2.74s-7.47-.74-7.69-1.19l2.72-4.15c-.17-1.16-5.27-1.17-5.38-2.33a61.58,61.58,0,0,1-.15-10.33c.12-1.71.31-3.41.58-5.09l6-.9c.46-1,5.12-5.33,5.12-5.33A1.65,1.65,0,0,0,264.91,177.75Z"/></g></svg>