<svg xmlns="http://www.w3.org/2000/svg" width="525.64" height="94" viewBox="0 0 525.64 94">
  <g id="Group_4" data-name="Group 4" transform="translate(-174.498 -207.832)">
    <text id="_4_Kids" data-name="4 Kids" transform="translate(450.138 280.832)" fill="#ffff1a" font-size="77" font-family="AmericanTypewriter-Bold, American Typewriter" font-weight="700"><tspan x="0" y="0">4 Kids</tspan></text>
    <g id="Group_3" data-name="Group 3" transform="translate(174.498 226.315)">
      <g id="Group_1" data-name="Group 1">
        <path id="Path_1" data-name="Path 1" d="M345.189,250.628c-2.749-9.6-10.431-17.908-19.7-17.908-13.032,0-20.057,13.674-20.057,27.28,0,14.587,7.75,26.066,20.273,26.066,9.558,0,17.521-8.919,19.407-17.454h.873l-.213,17.155H344.9c-1.229-1.741-2.746-3.551-3.183-3.551a28.743,28.743,0,0,1-17.233,5.217c-18.249,0-29.472-11.557-29.472-27.809a29.233,29.233,0,0,1,4.344-15.262c4.131-6.88,11.948-12.922,24.762-12.922a29.261,29.261,0,0,1,17.745,5.435c.359,0,2.245-2.039,3.406-3.78h.793V250.55Z" transform="translate(-295.01 -231.441)" fill="#fff"/>
        <path id="Path_2" data-name="Path 2" d="M334.389,276.066c-7.675,0-17.524-5.967-17.524-18.811,0-9.518,6.947-18.284,17.669-18.284,7.963,0,17.233,5.967,17.233,18.284C351.767,267.609,344.017,276.066,334.389,276.066Zm-.291-35.89c-5.718,0-8.979,8.688-8.979,17.3,0,9,2.6,17.378,9.415,17.378,6.666,0,8.979-10.652,8.979-17.684C343.513,250.075,341.191,240.176,334.1,240.176Z" transform="translate(-262.051 -220.084)" fill="#fff"/>
        <path id="Path_3" data-name="Path 3" d="M361.065,244.572c-2.245,5.59-6.155,15.869-9.047,22.969-1.6,3.551-2.032,4.763-3.185,7.479-.146.374-.359.6-.725.6s-.5-.374-.65-.682c-1.6-4.156-7.6-19.871-9.771-25.394-.65-1.663-2.1-5.591-3.04-7.409-.65-.6-1.45-1.886-4.926-2.039v-.828h19.044v.828c-1.811.231-5.505.607-5.505,2.724,0,1.211,5.505,14.808,8.545,22.44,2.892-7.632,7.75-20.631,7.75-22.219,0-2.8-3.406-2.867-5.139-3.022v-.757h14.05v.828C366.493,240.11,362.518,241.091,361.065,244.572Z" transform="translate(-242.662 -219.642)" fill="#fff"/>
        <path id="Path_4" data-name="Path 4" d="M344.884,285.114v-.752c2.245-.228,4.923-.828,4.923-2.721V256.63a2.019,2.019,0,0,0-.725-1.886A14.683,14.683,0,0,0,345.531,253v-.461l11.294-4.156h.434v33.553c.145,1.964,2.749,2.195,4.635,2.415v.752h-17.01Zm8.329-42.993a4.8,4.8,0,0,1-4.557-4.763,4.56,4.56,0,1,1,9.117,0A4.745,4.745,0,0,1,353.213,242.121Z" transform="translate(-219.797 -229.583)" fill="#fff"/>
      </g>
      <g id="Group_2" data-name="Group 2" transform="translate(147.868 0.186)">
        <path id="Path_5" data-name="Path 5" d="M353.967,287.483V231.515h20.87a59.909,59.909,0,0,1,12.683,1.307,29.452,29.452,0,0,1,10.669,4.507,23.17,23.17,0,0,1,7.391,8.5q2.765,5.3,2.766,13.358a28.507,28.507,0,0,1-2.646,12.726,24.934,24.934,0,0,1-7.075,8.816,29.742,29.742,0,0,1-10.2,5.1,43.11,43.11,0,0,1-12.019,1.665h-22.44Zm17.14-41.328v26.468h3.865q7.389,0,11.344-3.2t3.96-10.474q0-6.042-3.96-9.423t-10.549-3.371Z" transform="translate(-353.967 -231.515)" fill="#fff"/>
        <path id="Path_6" data-name="Path 6" d="M413.814,258.394a14.858,14.858,0,0,1,3.875,1.545,13.751,13.751,0,0,1,3.4,2.689,12.208,12.208,0,0,1,3.243,8.5,14.84,14.84,0,0,1-1.861,7.707,15.1,15.1,0,0,1-4.9,5.061,21.041,21.041,0,0,1-6.957,2.766,38.519,38.519,0,0,1-8.023.828H377.214V231.515h23a54.738,54.738,0,0,1,7.228.514,23.512,23.512,0,0,1,7.078,2.057,13.846,13.846,0,0,1,5.377,4.507,13.027,13.027,0,0,1,2.134,7.783,11.849,11.849,0,0,1-2.255,7.436,13.413,13.413,0,0,1-5.967,4.344v.238Zm-19.734-13.042v7.76h5.711a6.154,6.154,0,0,0,3.662-1.026,3.649,3.649,0,0,0,1.425-3.165,2.916,2.916,0,0,0-1.52-2.681,7.851,7.851,0,0,0-4.01-.9h-5.267Zm0,20.493v8.563h6.333a6.8,6.8,0,0,0,4.063-1.119,3.748,3.748,0,0,0,1.563-3.26,3.079,3.079,0,0,0-.667-2.049,5.118,5.118,0,0,0-1.645-1.3,7.326,7.326,0,0,0-2.1-.667,13.43,13.43,0,0,0-2.1-.178h-5.445Z" transform="translate(-318.909 -231.515)" fill="#fff"/>
      </g>
    </g>
  </g>
</svg>
